<?xml version="1.0" encoding="UTF-8"?>
<svg width="1920px" height="241px" viewBox="0 0 1920 241" version="1.1" xmlns="http://www.w3.org/2000/svg" xmlns:xlink="http://www.w3.org/1999/xlink">
    <!-- Generator: Sketch 45.2 (43514) - http://www.bohemiancoding.com/sketch -->
    <title>FRAME1</title>
    <desc>Created with Sketch.</desc>
    <defs>
        <polygon id="path-1" points="1920 192.174831 0 192.174831 0 96.0874154 0 0 1920 0 1920 96.0874154"></polygon>
    </defs>
    <g id="Page-1" stroke="none" stroke-width="1" fill="none" fill-rule="evenodd">
        <g id="FRAME1">
            <g id="Group-3" transform="translate(0.000000, 48.430371)">
                <g id="Fill-1-Clipped" transform="translate(0.000000, -0.000000)">
                    <mask id="mask-2" fill="white">
                        <use xlink:href="#path-1"></use>
                    </mask>
                    <g id="path-1"></g>
                    <path d="M0,91.0595433 C0,91.0595433 21.2775,96.581762 33.192,99.3421224 C45.1065,102.102483 58.7235,100.998638 64.6815,99.3421224 C70.638,97.6856066 72.3405,92.741521 75.744,96.0425706 C79.149,99.3421224 90.213,107.624702 101.277,109.281217 C112.341,110.936235 118.2975,107.624702 124.2555,104.862843 C130.2135,102.102483 143.8305,93.8199038 146.3835,91.0595433 C148.9365,88.2991829 167.6595,93.2687304 172.7655,96.0290908 C177.873,98.7894513 191.49,101.334135 201.702,109.724553 C211.914,118.11497 212.766,119.771486 222.978,119.220312 C233.1915,118.667641 244.2555,119.771486 249.3615,123.084517 C254.469,126.399047 257.022,130.263252 270.639,135.232799 C284.2545,140.202347 290.2125,140.755018 293.6175,138.545831 C297.021,136.336644 307.2345,131.367096 307.2345,133.023612 C307.2345,134.680128 306.3825,143.515378 312.3405,145.724565 C318.297,147.932255 337.872,151.245286 344.6805,155.110989 C351.489,158.976692 353.1915,158.976692 358.2975,155.110989 C363.405,151.245286 367.659,154.005647 373.617,151.245286 C379.575,148.484926 373.617,143.515378 379.575,148.484926 C385.5315,153.454473 394.0425,151.245286 408.51,152.349131 C422.979,153.454473 430.638,151.245286 440.85,149.58877 C451.0635,147.932255 459.5745,147.932255 468.936,144.619223 C478.2975,141.306191 484.2555,145.171894 490.2135,147.932255 C496.17,150.692615 539.574,153.454473 556.596,154.005647 C573.6165,154.558318 604.2555,146.275739 611.064,146.82841 C617.8725,147.381081 628.9365,147.381081 638.298,142.962707 C647.6595,138.545831 658.7235,132.470941 669.7875,131.367096 C680.8515,130.263252 702.1275,125.846376 706.383,129.712078 C710.6385,133.576283 703.83,140.755018 712.341,142.411534 C720.8505,144.06805 737.8725,140.755018 745.5315,143.515378 C753.192,146.275739 776.1705,149.036099 797.4465,149.58877 C818.7225,150.141442 826.383,143.515378 839.1495,139.649676 C851.9145,135.783973 872.3415,127.502891 882.5535,127.502891 C892.7655,127.502891 916.596,132.470941 925.9575,133.576283 C935.319,134.680128 960,139.097004 970.2135,141.306191 C980.4255,143.515378 988.086,141.306191 995.745,145.724565 C1003.404,150.141442 1016.1705,150.141442 1030.638,150.692615 C1045.1055,151.245286 1063.83,151.797958 1068.936,154.005647 C1074.042,156.214834 1086.8085,156.491918 1099.575,158.009143 C1112.3415,159.527865 1134.468,167.257773 1148.085,163.393568 C1161.702,159.527865 1177.872,155.110989 1184.6805,156.214834 C1191.489,157.318678 1182.978,162.219329 1188.936,164.462965 C1194.894,166.7066 1221.2775,168.914289 1240.0005,173.883837 C1258.7235,178.853384 1270.638,177.196868 1284.255,173.883837 C1297.872,170.570805 1312.341,162.840897 1321.7025,165.602755 C1331.064,168.363116 1336.17,167.810445 1345.5315,168.914289 C1354.8945,170.019632 1366.809,162.840897 1387.2345,165.050084 C1407.6585,167.257773 1441.7025,167.810445 1448.511,163.393568 C1455.3195,158.976692 1463.8305,159.527865 1468.9365,158.424021 C1474.0425,157.318678 1487.6595,152.901802 1502.979,151.797958 C1518.2985,150.692615 1519.9995,147.381081 1536.1695,146.82841 C1552.341,146.275739 1549.7865,142.962707 1544.6805,140.202347 C1539.5745,137.441986 1534.4685,134.127457 1538.7225,129.157909 C1542.978,124.18986 1559.1495,126.399047 1568.511,124.18986 C1577.8725,121.980673 1588.9365,110.385062 1594.8945,111.490404 C1600.851,112.594249 1616.1705,116.458454 1622.127,114.250765 C1628.085,112.041578 1647.6585,103.758999 1657.0215,103.206328 C1666.383,102.655154 1668.0855,102.655154 1667.2335,99.3421224 C1666.383,96.0290908 1665.531,89.9931426 1673.1915,90.2507562 C1680.8505,90.5068721 1691.064,88.8503563 1697.8725,86.0899959 C1704.681,83.3296354 1714.8945,72.8378693 1725.957,71.1813535 C1737.021,69.5248377 1744.6815,70.6286823 1740.426,66.211806 C1736.1705,61.793432 1740.426,50.7504925 1748.085,47.4374608 C1755.7455,44.1259269 1764.255,38.6037083 1768.5105,35.2906766 C1772.766,31.977645 1780.425,30.8723026 1784.6805,31.977645 C1788.936,33.0814896 1800.8505,33.0814896 1804.2555,29.2157868 C1807.659,25.3515817 1817.8725,24.7989105 1826.3835,23.6950659 C1834.8945,22.5912213 1841.7015,17.0690026 1851.063,17.0690026 C1860.426,17.0690026 1859.574,14.8613134 1873.191,11.5482817 C1886.808,8.23375232 1893.6165,1.60768904 1902.1275,1.05651561 C1910.6385,0.503844414 1920,10.9956105 1920,10.9956105 L1920,193.210853 L0,193.210853 L0,91.0595433 Z" id="Fill-1" fill="#FFFFFF" fill-rule="nonzero" mask="url(#mask-2)"></path>
                </g>
            </g>
            <path d="M1919.12545,28.7125415 C1919.12545,28.7125415 1900.44019,30.9217285 1880.05586,28.7125415 C1859.67153,26.5033545 1851.17768,35.3386048 1840.98477,37.546294 C1830.79335,39.755481 1807.57674,48.9591788 1796.81947,49.694576 C1786.0607,50.4314709 1778.13271,51.903763 1778.13271,51.903763 C1778.13271,51.903763 1777.00099,53.0076076 1773.037,55.5837443 C1769.0745,58.1628765 1758.31723,62.2113054 1757.18402,63.6835974 C1756.0508,65.1558895 1754.91759,76.9342262 1754.35174,78.7749658 C1753.78588,80.6157054 1732.27133,83.928737 1716.41535,83.928737 C1700.55938,83.928737 1672.24706,88.347111 1649.5978,93.5008822 C1626.95004,98.6531556 1599.77243,110.43299 1590.71123,114.114469 C1581.65153,117.795948 1592.97316,119.26824 1585.04817,125.894304 C1577.12167,132.520367 1549.94257,144.277735 1546.54443,143.552822 C1543.14779,142.826412 1513.70375,146.509388 1505.77577,147.246283 C1497.84927,147.980183 1500.1142,147.244786 1485.39143,152.398557 C1470.67017,157.55083 1461.61196,153.133954 1449.15412,159.761515 C1436.69478,166.386081 1431.03172,173.013642 1409.51568,169.332162 C1388.00113,165.650683 1375.54179,176.693623 1363.6513,177.797468 C1351.76082,178.901312 1356.85653,189.945749 1353.45989,189.945749 C1350.06175,189.945749 1334.77462,197.675657 1312.69122,196.571813 C1290.60782,195.46647 1263.42872,205.621242 1251.53673,196.679651 C1239.64625,187.736562 1214.16621,192.154937 1209.0705,192.154937 C1203.97479,192.154937 1148.76629,209.823939 1148.76629,209.823939 L1141.12273,229.700631 L1919.12545,229.700631 L1919.12545,28.7125415 Z" id="Fill-4" fill="#FFFFFF" fill-rule="nonzero" opacity="0.3"></path>
            <path d="M0,69.9403146 C0,69.9403146 13.5895542,72.8878943 20.3843313,78.0401677 C27.1791084,83.1939389 48.698148,82.457044 56.6246394,81.7201491 C64.5511309,80.9847519 58.8865712,71.9338251 64.5511309,76.0900921 C70.2141936,80.2493547 83.8007538,93.4999836 91.7287423,95.7091706 C99.6567307,97.9183576 120.041062,109.696694 126.837336,111.905881 C133.632113,114.113571 146.088456,121.476529 169.869427,119.26884 C193.650399,117.059653 229.890707,116.324255 240.083621,115.58736 C250.275038,114.850465 263.866089,119.34822 263.866089,119.677726 C263.866089,120.004237 254.804889,125.893405 254.804889,125.893405 C254.804889,125.893405 285.383632,137.652271 294.441838,143.551924 C303.50154,149.453074 314.826169,153.134553 320.487735,154.606845 C326.1493,156.079137 339.738855,163.440598 340.872066,167.122077 C342.005277,170.805054 355.593335,184.054185 358.991472,183.318788 C362.388112,182.58339 406.556408,184.849492 419.012751,183.348743 C431.469094,181.847993 443.925437,183.691728 450.720214,183.872957 C457.514991,184.055682 469.335119,189.929873 472.911396,189.889434 C476.486176,189.848995 491.661029,195.098622 491.661029,195.098622 L476.767608,216.449104 L0,216.449104 L0,69.9403146 Z" id="Fill-6" fill="#FFFFFF" fill-rule="nonzero" opacity="0.5"></path>
            <path d="M0,0 C0,0 9.05970279,5.88916836 10.1929141,11.0444373 C11.3246285,16.1967107 14.7227655,15.4613136 21.5175426,14.7259164 C28.3123197,13.9890215 40.7686626,16.1967107 35.672954,17.3020531 C30.5772454,18.4058978 33.5277864,20.9820345 36.8645474,21.7189294 C40.2028054,22.4558243 48.696651,26.5042531 52.093291,28.7119424 C55.4914281,30.9211294 63.9852737,33.1303164 64.5511309,35.3380057 C65.1169881,37.5471927 53.7923596,42.3340142 57.1904966,43.4378588 C60.5871367,44.5417034 71.9102682,56.6884876 81.5373251,59.6345695 C91.1628851,62.5791537 102.487514,63.6844961 110.415502,65.5252356 C118.34349,67.3644774 125.136771,65.8906876 127.967553,69.9406142 C130.799833,73.9905407 131.36569,74.3574904 135.895542,72.8866961 C140.42689,71.414404 150.05245,71.8921875 157.413084,73.6775102 C164.773719,75.4628328 182.32577,79.1428142 187.422976,80.616604 C192.517187,82.0888961 208.942015,87.6111147 215.167941,85.7703752 C221.396861,83.9296356 225.926713,84.3040741 227.625781,86.1418182 C229.323353,87.9795622 255.938101,100.127844 263.298735,104.176273 C270.659369,108.224702 283.680072,121.108381 287.645564,125.893705 C291.609558,130.680526 303.217115,141.721968 312.559746,143.19426 C321.902378,144.66805 335.491932,146.691515 338.890069,143.19426 C342.286709,139.698502 343.136992,138.01952 345.684846,143.552223 C348.2327,149.084926 358.425614,155.158318 358.425614,155.158318 C358.425614,155.158318 365.220391,159.575194 365.220391,161.785879 C365.220391,163.993568 371.164886,165.097413 373.714237,167.3066 C376.262091,169.515787 397.495208,167.859271 413.632617,170.619632 C429.770025,173.379992 428.072454,164.54624 436.564802,167.859271 C445.058648,171.172303 442.510794,170.601659 448.455288,171.163316 C454.401279,171.724974 470.538688,167.3066 470.538688,167.3066 C470.538688,167.3066 480.731602,172.828819 485.827311,176.14185 C490.923019,179.453384 519.801196,183.871758 531.691682,187.18479 C543.583664,190.497822 565.665567,187.18479 565.665567,187.18479 L589.67857,196.258183 L589.67857,219.209764 L0,219.209764 L0,0 Z" id="Fill-8" fill="#FFFFFF" fill-rule="nonzero" opacity="0.3"></path>
        </g>
    </g>
</svg>