<?xml version="1.0" encoding="UTF-8"?>
<svg width="40px" height="40px" viewBox="0 0 40 40" version="1.1" xmlns="http://www.w3.org/2000/svg" xmlns:xlink="http://www.w3.org/1999/xlink">
    <!-- Generator: Sketch 45.2 (43514) - http://www.bohemiancoding.com/sketch -->
    <title>Page 1</title>
    <desc>Created with Sketch.</desc>
    <defs></defs>
    <g id="Page-1" stroke="none" stroke-width="1" fill="none" fill-rule="evenodd">
        <g id="4-CONTACT-US" transform="translate(-279.000000, -1084.000000)">
            <g id="Group" transform="translate(279.000000, 1074.000000)">
                <g id="Page-1" transform="translate(0.000000, 10.000000)">
                    <polygon id="Fill-1" fill="#FFFFFF" points="0 40 40 40 40 0 0 0"></polygon>
                    <g id="Group-4" transform="translate(5.000000, 0.000000)" fill="#231F20">
                        <path d="M15.0112,29.5771 C15.0072,29.5771 15.0042,29.5791 14.9992,29.5801 C14.9952,29.5791 14.9922,29.5771 14.9892,29.5771 C14.9392,29.5761 10.0432,29.6391 7.0052,26.0341 C4.2632,22.7781 4.3092,19.6261 4.3582,16.2891 C4.3652,15.8441 4.3712,15.3981 4.3712,14.9511 C4.3712,14.8171 4.3672,14.6531 4.3652,14.5031 C4.3882,14.4451 4.4032,14.3821 4.4052,14.3161 C4.4072,14.2411 4.3892,14.1701 4.3612,14.1051 C4.3602,14.0811 4.3602,14.0621 4.3602,14.0371 C4.3092,11.2551 4.2242,6.5981 7.0862,3.6831 C8.8342,1.9031 11.4972,1.0001 15.0002,1.0001 C18.5022,1.0001 21.1652,1.9031 22.9142,3.6831 C25.7752,6.5981 25.6912,11.2551 25.6402,14.0371 C25.6392,14.0611 25.6392,14.0791 25.6392,14.1031 C25.6102,14.1691 25.5912,14.2411 25.5932,14.3181 C25.5952,14.3741 25.6142,14.4261 25.6342,14.4761 C25.6322,14.6351 25.6282,14.8091 25.6282,14.9511 C25.6282,15.3971 25.6352,15.8421 25.6412,16.2851 C25.6902,19.6241 25.7362,22.7771 22.9942,26.0341 C19.9562,29.6401 15.0572,29.5821 15.0112,29.5771 M22.2632,32.7891 C22.6472,33.4431 22.6732,34.1771 22.3442,35.0331 C21.6302,36.8821 20.0402,37.4961 18.5342,37.6291 L18.5342,37.1531 C18.5342,36.8771 18.3112,36.6531 18.0342,36.6531 C17.7582,36.6531 17.5342,36.8771 17.5342,37.1531 L17.5342,37.6551 C16.2692,37.6091 15.2432,37.3111 15.1452,37.2811 C15.1302,37.2761 15.1142,37.2801 15.0982,37.2761 C15.0652,37.2691 15.0322,37.2671 14.9982,37.2671 C14.9652,37.2671 14.9342,37.2701 14.9032,37.2761 C14.8862,37.2801 14.8712,37.2761 14.8552,37.2811 C14.7572,37.3101 13.7302,37.6081 12.4642,37.6541 L12.4642,37.1531 C12.4642,36.8771 12.2402,36.6531 11.9642,36.6531 C11.6882,36.6531 11.4642,36.8771 11.4642,37.1531 L11.4642,37.6281 C9.9582,37.4961 8.3682,36.8821 7.6562,35.0331 C7.3262,34.1771 7.3522,33.4431 7.7362,32.7891 C8.5372,31.4241 10.6632,30.7481 11.8552,30.4661 C11.8612,30.5021 11.8692,30.5391 11.8762,30.5761 C10.6632,31.1821 10.0502,31.9141 10.0672,32.7601 C10.1082,34.8781 14.3372,36.5831 14.8192,36.7701 C14.8782,36.7941 14.9392,36.8051 15.0002,36.8051 C15.0602,36.8051 15.1212,36.7941 15.1812,36.7701 C15.6632,36.5831 19.8912,34.8781 19.9322,32.7601 C19.9492,31.9151 19.3362,31.1811 18.1212,30.5751 C18.1282,30.5391 18.1362,30.5011 18.1422,30.4661 C19.3342,30.7471 21.4612,31.4241 22.2632,32.7891 M15.0002,35.7631 C13.3192,35.0761 11.0862,33.7441 11.0672,32.7401 C11.0572,32.2701 11.5782,31.8631 12.1532,31.5551 C12.5722,32.6431 13.4122,33.7311 15.0002,33.7311 C16.5872,33.7311 17.4272,32.6431 17.8442,31.5551 C18.4202,31.8621 18.9422,32.2701 18.9322,32.7401 C18.9132,33.7441 16.6812,35.0761 15.0002,35.7631 M14.9282,30.5781 C14.9652,30.5781 14.9862,30.5771 15.0002,30.5771 C15.0142,30.5771 15.0342,30.5781 15.0722,30.5781 C15.3272,30.5781 16.1052,30.5561 17.1372,30.3631 C16.9812,31.2471 16.4962,32.7311 15.0002,32.7311 C13.5022,32.7311 13.0162,31.2461 12.8602,30.3631 C13.8932,30.5561 14.6732,30.5781 14.9282,30.5781 M2.1972,18.3691 C1.8412,18.0231 1.6602,17.5261 1.6602,16.8921 C1.6602,16.2621 1.8392,15.7661 2.1932,15.4201 C2.5452,15.0751 3.0132,14.9271 3.3702,14.8601 C3.3702,14.8881 3.3712,14.9241 3.3712,14.9511 C3.3712,15.3931 3.3652,15.8341 3.3582,16.2741 C3.3582,16.3131 3.3572,16.3531 3.3572,16.3921 L2.8192,16.3921 C2.5432,16.3921 2.3192,16.6161 2.3192,16.8921 C2.3192,17.1691 2.5432,17.3921 2.8192,17.3921 L3.3462,17.3921 C3.3442,17.9021 3.3512,18.4131 3.3742,18.9281 C3.0182,18.8611 2.5502,18.7121 2.1972,18.3691 M28.3392,16.8921 C28.3392,17.5231 28.1602,18.0181 27.8062,18.3651 C27.4522,18.7111 26.9832,18.8591 26.6252,18.9261 C26.6482,18.4121 26.6552,17.9011 26.6532,17.3921 L27.1812,17.3921 C27.4572,17.3921 27.6812,17.1691 27.6812,16.8921 C27.6812,16.6161 27.4572,16.3921 27.1812,16.3921 L26.6422,16.3921 C26.6422,16.3521 26.6412,16.3111 26.6412,16.2701 C26.6352,15.8321 26.6282,15.3921 26.6282,14.9511 C26.6282,14.9241 26.6292,14.8881 26.6292,14.8601 C26.9852,14.9271 27.4502,15.0751 27.8022,15.4161 C28.1582,15.7621 28.3392,16.2591 28.3392,16.8921 M23.7592,26.6791 C25.6702,24.4081 26.3332,22.1601 26.5522,19.9501 C27.0592,19.8881 27.8732,19.6941 28.4992,19.0861 C29.0562,18.5451 29.3392,17.8061 29.3392,16.8921 C29.3392,15.9781 29.0562,15.2401 28.4992,14.6991 C27.9112,14.1281 27.1542,13.9221 26.6432,13.8481 C26.6962,10.8891 26.7112,6.1231 23.6272,2.9831 C21.6832,1.0031 18.7812,0.0001 15.0002,0.0001 C11.2192,0.0001 8.3162,1.0031 6.3722,2.9831 C3.2882,6.1231 3.3042,10.8881 3.3562,13.8471 C2.8462,13.9211 2.0882,14.1271 1.5002,14.6991 C0.9432,15.2401 0.6602,15.9781 0.6602,16.8921 C0.6602,17.8061 0.9432,18.5451 1.5002,19.0861 C2.1262,19.6941 2.9402,19.8871 3.4472,19.9501 C3.6652,22.1601 4.3282,24.4091 6.2402,26.6791 C7.5712,28.2581 9.1902,29.1921 10.6752,29.7531 C9.3432,30.1731 7.6622,30.9431 6.8752,32.2811 C6.5912,32.7651 6.4492,33.2841 6.4362,33.8321 C3.2842,35.1911 3.1722,39.3111 3.1692,39.4921 C3.1642,39.7681 3.3852,39.9951 3.6612,40.0001 L3.6692,40.0001 C3.9412,40.0001 4.1642,39.7811 4.1692,39.5081 C4.1692,39.4721 4.2542,36.0991 6.5732,34.8651 C6.6182,35.0401 6.6542,35.2131 6.7232,35.3921 C7.5852,37.6291 9.5372,38.4571 11.4642,38.6241 L11.4642,39.5001 C11.4642,39.7761 11.6882,40.0001 11.9642,40.0001 C12.2402,40.0001 12.4642,39.7761 12.4642,39.5001 L12.4642,38.6491 C13.4152,38.6281 14.3052,38.4741 15.0002,38.2761 C15.6952,38.4741 16.5832,38.6281 17.5342,38.6491 L17.5342,39.5001 C17.5342,39.7761 17.7582,40.0001 18.0342,40.0001 C18.3112,40.0001 18.5342,39.7761 18.5342,39.5001 L18.5342,38.6231 C20.4622,38.4571 22.4142,37.6281 23.2762,35.3921 C23.3452,35.2131 23.3812,35.0411 23.4262,34.8661 C25.7352,36.0991 25.8292,39.4731 25.8292,39.5091 C25.8352,39.7811 26.0572,40.0001 26.3292,40.0001 L26.3382,40.0001 C26.6142,39.9951 26.8342,39.7671 26.8292,39.4921 C26.8262,39.3101 26.7132,35.1921 23.5632,33.8321 C23.5502,33.2841 23.4082,32.7651 23.1242,32.2811 C22.3372,30.9431 20.6572,30.1731 19.3252,29.7531 C20.8102,29.1921 22.4292,28.2581 23.7592,26.6791" id="Fill-2"></path>
                    </g>
                </g>
            </g>
        </g>
    </g>
</svg>