<?xml version="1.0" encoding="UTF-8"?>
<svg width="165px" height="165px" viewBox="0 0 165 165" version="1.1" xmlns="http://www.w3.org/2000/svg" xmlns:xlink="http://www.w3.org/1999/xlink">
    <!-- Generator: Sketch 45.2 (43514) - http://www.bohemiancoding.com/sketch -->
    <title>Page 1</title>
    <desc>Created with Sketch.</desc>
    <defs></defs>
    <g id="Page-1" stroke="none" stroke-width="1" fill="none" fill-rule="evenodd">
        <g id="1-HOMEPAGE-1" transform="translate(-123.000000, -989.000000)">
            <g id="Group-2" transform="translate(70.000000, 989.000000)">
                <g id="Page-1" transform="translate(53.000000, 0.000000)">
                    <path d="M165,82.5 C165,128.063 128.063,165 82.5,165 C36.937,165 0,128.063 0,82.5 C0,36.937 36.937,0 82.5,0 C128.063,0 165,36.937 165,82.5" id="Fill-1" fill="#FFF3E3"></path>
                    <path d="M68.4922,23.8691 L70.6152,23.8691 C70.8332,23.8691 71.0162,24.0531 71.0162,24.2871 L71.0162,51.5331 C71.0162,51.7501 70.8332,51.9341 70.6152,51.9341 L68.4922,51.9341 C68.2592,51.9341 68.0742,51.7501 68.0742,51.5331 L68.0742,24.2871 C68.0742,24.0531 68.2592,23.8691 68.4922,23.8691" id="Fill-3" fill="#F28500"></path>
                    <path d="M67.623,50.6299 L71.467,50.6299 C71.886,50.6299 72.221,50.9649 72.221,51.3829 L72.221,56.0959 C72.221,56.5139 71.886,56.8479 71.467,56.8479 L67.623,56.8479 C67.206,56.8479 66.871,56.5139 66.871,56.0959 L66.871,51.3829 C66.871,50.9649 67.206,50.6299 67.623,50.6299" id="Fill-7" fill="#F9BF00"></path>
                    <path d="M67.623,20.0752 L71.467,20.0752 C71.886,20.0752 72.221,20.4092 72.221,20.8272 L72.221,25.5412 C72.221,25.9582 71.886,26.2932 71.467,26.2932 L67.623,26.2932 C67.206,26.2932 66.871,25.9582 66.871,25.5412 L66.871,20.8272 C66.871,20.4092 67.206,20.0752 67.623,20.0752" id="Fill-9" fill="#F9BF00"></path>
                    <path d="M94.3848,23.8691 L96.5078,23.8691 C96.7248,23.8691 96.9258,24.0531 96.9258,24.2871 L96.9258,51.5331 C96.9258,51.7501 96.7248,51.9341 96.5078,51.9341 L94.3848,51.9341 C94.1508,51.9341 93.9668,51.7501 93.9668,51.5331 L93.9668,24.2871 C93.9668,24.0531 94.1508,23.8691 94.3848,23.8691" id="Fill-11" fill="#F28500"></path>
                    <path d="M126.5,136.3301 C126.5,137.4341 106.801,138.3301 82.5,138.3301 C58.199,138.3301 38.5,137.4341 38.5,136.3301 C38.5,135.2261 58.199,134.3301 82.5,134.3301 C106.801,134.3301 126.5,135.2261 126.5,136.3301" id="Fill-15" fill="#F28500"></path>
                    <path d="M93.5156,50.6299 L97.3766,50.6299 C97.7776,50.6299 98.1116,50.9649 98.1116,51.3829 L98.1116,56.0959 C98.1116,56.5139 97.7776,56.8479 97.3766,56.8479 L93.5156,56.8479 C93.1156,56.8479 92.7816,56.5139 92.7816,56.0959 L92.7816,51.3829 C92.7816,50.9649 93.1156,50.6299 93.5156,50.6299" id="Fill-17" fill="#F9BF00"></path>
                    <path d="M93.5156,20.0752 L97.3766,20.0752 C97.7776,20.0752 98.1116,20.4092 98.1116,20.8272 L98.1116,25.5412 C98.1116,25.9582 97.7776,26.2932 97.3766,26.2932 L93.5156,26.2932 C93.1156,26.2932 92.7816,25.9582 92.7816,25.5412 L92.7816,20.8272 C92.7816,20.4092 93.1156,20.0752 93.5156,20.0752" id="Fill-19" fill="#F9BF00"></path>
                    <path d="M66.7871,17.0498 L98.2131,17.0498 C99.2321,17.0498 100.0681,17.8848 100.0681,18.9218 L100.0681,22.4158 C100.0681,23.4508 99.2321,24.2868 98.2131,24.2868 L96.1231,24.2868 C96.0571,24.2868 94.2851,24.1038 92.4301,22.6988 C90.8421,21.5128 89.0531,21.5128 87.4821,22.6988 C85.6091,24.1038 83.8361,24.2868 83.7871,24.2868 L83.7691,24.2868 L81.2121,24.2868 C81.1621,24.2868 79.3911,24.1038 77.5181,22.6988 C75.9471,21.5128 74.1421,21.5128 72.5711,22.6988 C70.6981,24.1038 68.9271,24.2868 68.8771,24.2868 L66.7871,24.2868 C65.7661,24.2868 64.9151,23.4508 64.9151,22.4158 L64.9151,18.9218 C64.9151,17.8848 65.7661,17.0498 66.7871,17.0498" id="Fill-21" fill="#F9BF00"></path>
                    <path d="M98.2129,20.4595 C98.2129,20.8275 98.0959,21.1615 97.9279,21.4625 C97.5939,21.9805 97.0079,22.3315 96.3399,22.3315 L94.2499,22.3315 C94.2169,22.3315 93.6329,22.2645 92.7809,21.9475 C92.1449,21.7135 91.3589,21.3455 90.5569,20.7435 C88.9839,19.5575 87.1969,19.5575 85.6089,20.7435 C83.7539,22.1475 81.9649,22.3155 81.9149,22.3315 L79.3579,22.3315 C79.2899,22.3155 77.5189,22.1475 75.6629,20.7435 C74.0749,19.5575 72.2869,19.5575 70.6979,20.7435 C70.4819,20.9115 70.2479,21.0785 70.0139,21.2115 C68.4259,22.1975 67.0559,22.3315 67.0049,22.3315 L66.8709,22.3315 L64.9319,22.3315 L64.9149,22.3315 L64.9149,22.4155 C64.9149,23.4515 65.7669,24.2875 66.7869,24.2875 L66.8709,24.2875 L68.8769,24.2875 C68.9269,24.2875 70.4819,24.1205 72.2209,22.9495 C72.3369,22.8665 72.4539,22.7835 72.5709,22.6995 C74.1429,21.5125 75.9469,21.5125 77.5189,22.6995 C79.3909,24.1035 81.1619,24.2875 81.2119,24.2875 L83.7869,24.2875 C83.8359,24.2875 85.6089,24.1035 87.4829,22.6995 C89.0529,21.5125 90.8419,21.5125 92.4299,22.6995 C92.5449,22.7835 92.6619,22.8665 92.7809,22.9495 C94.5019,24.1205 96.0719,24.2875 96.1229,24.2875 L98.1109,24.2875 L98.2129,24.2875 C99.2329,24.2875 100.0679,23.4515 100.0679,22.4155 L100.0679,18.9215 C100.0679,17.8855 99.2329,17.0495 98.2129,17.0495 L98.2129,20.4595 Z" id="Fill-23" fill="#F28500"></path>
                    <path d="M59.333,127.9707 L63.177,127.9707 C63.595,127.9707 63.93,128.3227 63.93,128.7247 L63.93,135.5937 C63.93,135.9937 63.595,136.3297 63.177,136.3297 L59.333,136.3297 C58.915,136.3297 58.58,135.9937 58.58,135.5937 L58.58,128.7247 C58.58,128.3227 58.915,127.9707 59.333,127.9707" id="Fill-25" fill="#F9BF00"></path>
                    <path d="M101.8066,127.9707 L105.6676,127.9707 C106.0686,127.9707 106.4026,128.3227 106.4026,128.7247 L106.4026,135.5937 C106.4026,135.9937 106.0686,136.3297 105.6676,136.3297 L101.8066,136.3297 C101.4046,136.3297 101.0706,135.9937 101.0706,135.5937 L101.0706,128.7247 C101.0706,128.3227 101.4046,127.9707 101.8066,127.9707" id="Fill-27" fill="#F9BF00"></path>
                    <path d="M111.334,60.6929 L111.334,124.7789 C111.334,128.6739 108.141,131.8649 104.246,131.8649 L60.736,131.8649 C56.842,131.8649 53.666,128.6739 53.666,124.7789 L53.666,60.6929 C53.666,56.7979 56.842,53.6219 60.736,53.6219 L104.246,53.6219 C108.141,53.6219 111.334,56.7979 111.334,60.6929" id="Fill-29" fill="#F9BF00"></path>
                    <path d="M103.7949,77.4082 L103.7949,105.3732 C103.7949,113.6132 97.0429,120.3652 88.8009,120.3652 L76.1979,120.3652 C67.9409,120.3652 61.2049,113.6132 61.2049,105.3732 L61.2049,77.4082 L103.7949,77.4082 Z" id="Fill-31" fill="#F28500"></path>
                    <path d="M60.3193,53.6221 L104.6643,53.6221 C103.9633,61.5961 97.2263,67.8971 89.0863,67.8971 L75.9143,67.8971 C67.7743,67.8971 61.0203,61.5961 60.3193,53.6221" id="Fill-33" fill="#F28500"></path>
                    <path d="M59.7666,77.4082 L105.2326,77.4082 C105.7856,77.4082 106.2366,77.8592 106.2366,78.4112 C106.2366,78.9452 105.7856,79.3972 105.2326,79.3972 L59.7666,79.3972 C59.2156,79.3972 58.7636,78.9452 58.7636,78.4112 C58.7636,77.8592 59.2156,77.4082 59.7666,77.4082" id="Fill-35" fill="#F28500"></path>
                    <path d="M111.334,60.6929 L111.334,124.7789 C111.334,128.6739 108.141,131.8649 104.246,131.8649 L60.736,131.8649 C57.795,131.8649 55.254,130.0269 54.185,127.4529 C55.104,127.8889 56.14,128.1389 57.227,128.1389 L100.736,128.1389 C104.631,128.1389 107.824,124.9629 107.824,121.0679 L107.824,56.9649 C107.824,56.0299 107.623,55.1269 107.289,54.3079 C109.68,55.4449 111.334,57.8849 111.334,60.6929" id="Fill-37" fill="#F28500"></path>
                    <path d="M111.334,113.9805 L111.334,113.9805 L111.334,124.7795 C111.334,128.6735 108.141,131.8655 104.246,131.8655 L93.08,131.8655 C93.08,126.9515 97.092,122.9235 102.023,122.9235 L102.76,122.9235 C107.506,122.7225 111.334,118.7775 111.334,113.9805" id="Fill-39" fill="#F28500"></path>
                    <path d="M53.666,113.9805 L53.666,113.9805 L53.666,124.7795 C53.666,128.6735 56.842,131.8655 60.736,131.8655 L71.919,131.8655 C71.919,126.9515 67.891,122.9235 62.977,122.9235 L62.241,122.9235 C57.477,122.7225 53.666,118.7775 53.666,113.9805" id="Fill-41" fill="#F28500"></path>
                    <path d="M111.334,113.9805 L111.334,113.9805 L111.334,124.7795 C111.334,128.6735 108.141,131.8655 104.246,131.8655 L93.08,131.8655 C93.08,130.5295 93.365,129.2755 93.883,128.1385 L100.736,128.1385 C104.631,128.1385 107.807,124.9625 107.824,121.0845 C109.945,119.4455 111.334,116.8735 111.334,113.9805" id="Fill-43" fill="#C56D19"></path>
                    <path d="M56.1396,130.1621 L56.1396,130.1621 C56.2406,130.2281 56.3396,130.3101 56.4416,130.3961 C56.5406,130.4781 56.6416,130.5471 56.7246,130.6131 L56.7586,130.6291 L56.8416,130.6801 L56.8746,130.7131 L56.9576,130.7641 L56.9926,130.7791 C57.0596,130.8121 57.1096,130.8481 57.1766,130.8961 L57.1936,130.9141 L57.2766,130.9471 L57.3266,130.9801 L57.4106,131.0141 L57.4596,131.0471 C57.5436,131.0981 57.6446,131.1481 57.7276,131.1801 L57.7946,131.2151 L57.8616,131.2481 L57.9286,131.2811 L58.0286,131.3141 L58.1456,131.3651 L58.1616,131.3811 L58.2956,131.4321 L58.3296,131.4321 L58.4296,131.4821 L58.4956,131.4981 L58.6296,131.5311 L58.6806,131.5491 L58.7816,131.5821 L58.8306,131.5981 L58.9636,131.6331 L58.9826,131.6481 C59.0816,131.6661 59.1996,131.6991 59.2986,131.7151 L59.3326,131.7151 L59.4496,131.7501 L59.5166,131.7501 L59.6666,131.7831 L59.6836,131.7831 L59.8336,131.7991 L59.8676,131.8141 L59.9836,131.8141 L60.0346,131.8321 C60.1516,131.8321 60.2516,131.8491 60.3686,131.8491 L60.4026,131.8491 L60.5186,131.8651 L60.5866,131.8651 L60.7366,131.8651 L71.9186,131.8651 C71.9186,130.5291 71.6346,129.2751 71.0996,128.1391 L57.2266,128.1391 C56.1396,128.1391 55.1036,127.8891 54.1846,127.4531 C54.3846,127.9371 54.6346,128.3911 54.9356,128.8241 C55.2706,129.3081 55.6886,129.7601 56.1396,130.1621" id="Fill-45" fill="#C56D19"></path>
                </g>
            </g>
        </g>
    </g>
</svg>