<?xml version="1.0" encoding="UTF-8"?>
<svg width="120px" height="120px" viewBox="0 0 120 120" version="1.1" xmlns="http://www.w3.org/2000/svg" xmlns:xlink="http://www.w3.org/1999/xlink">
    <!-- Generator: Sketch 45.2 (43514) - http://www.bohemiancoding.com/sketch -->
    <title>Page 1</title>
    <desc>Created with Sketch.</desc>
    <defs></defs>
    <g id="Page-1" stroke="none" stroke-width="1" fill="none" fill-rule="evenodd">
        <g id="3-SERVICES" transform="translate(-900.000000, -1918.000000)">
            <g id="Page-1" transform="translate(900.000000, 1918.000000)">
                <path d="M120,60 C120,93.138 93.138,120 60,120 C26.862,120 0,93.138 0,60 C0,26.8635 26.862,0 60,0 C93.138,0 120,26.8635 120,60" id="Fill-1" fill="#FFF3E3"></path>
                <path d="M91.9995,99.1494 C91.9995,99.9519 77.673,100.6044 60,100.6044 C42.327,100.6044 28.0005,99.9519 28.0005,99.1494 C28.0005,98.3469 42.327,97.6944 60,97.6944 C77.673,97.6944 91.9995,98.3469 91.9995,99.1494" id="Fill-3" fill="#F28500"></path>
                <path d="M72.1758,54.8079 C73.2843,54.3684 73.8858,52.7979 73.9818,51.5904 L74.7168,47.1999 L74.7363,47.0274 C74.8053,45.8304 74.4543,44.7054 73.7703,43.9404 C73.6428,43.7979 73.5048,43.6704 73.3563,43.5579 C73.2633,42.8199 73.1418,42.1239 72.9978,41.4639 L73.0833,41.5614 C74.2953,40.4889 75.9303,39.9654 78.0828,39.9654 C82.8318,39.9654 85.1868,42.4719 85.7208,48.0939 L85.8513,49.4769 L86.6973,49.5234 L86.6973,49.5489 L86.1393,52.8834 L86.1228,53.0094 L85.5798,53.0094 L85.1868,54.0579 C83.7213,57.9669 81.1323,60.2094 78.0828,60.2094 C75.5298,60.2094 73.2798,58.6239 71.7468,55.7469 C71.8953,55.4409 72.0393,55.1289 72.1758,54.8079" id="Fill-5" fill="#F9BF00"></path>
                <path d="M48.1509,46.24365 L49.3149,46.24365 L49.4544,44.78265 C50.1684,37.29015 53.4714,33.80115 59.8509,33.80115 C66.2319,33.80115 69.5364,37.29165 70.2474,44.79015 L70.3779,46.17465 L71.4339,46.23165 C71.4789,46.35165 71.5209,46.53765 71.5164,46.76715 L70.7859,51.13365 L70.7664,51.30615 C70.7574,51.45315 70.7334,51.58665 70.7004,51.70065 L69.9174,51.70065 L69.5244,52.74765 C67.5489,58.02315 64.0209,61.04865 59.8509,61.04865 C55.6734,61.04865 52.1454,58.01865 50.1729,52.73415 L49.7844,51.77415 L48.9549,51.70365 L48.1509,46.24515 L48.1509,46.24365 Z" id="Fill-7" fill="#F28500"></path>
                <path d="M70.20855,59.2998 L69.52155,59.2998 C69.64155,59.1513 69.76305,59.0043 69.88005,58.8498 C69.98805,59.0013 70.09605,59.1543 70.20855,59.2998" id="Fill-9" fill="#F9BF00"></path>
                <path d="M50.1768,59.2998 L49.7913,59.2998 C49.8543,59.2173 49.9158,59.1303 49.9788,59.0463 C50.0433,59.1303 50.1093,59.2173 50.1768,59.2998" id="Fill-11" fill="#F9BF00"></path>
                <path d="M33.30315,49.54905 L33.30315,49.52205 L34.14765,49.47705 L34.27815,48.09405 C34.81365,42.47205 37.16865,39.96555 41.91615,39.96555 C43.95615,39.96555 45.52365,40.43955 46.71465,41.40105 C46.58115,42.01605 46.46415,42.66105 46.37265,43.34355 C46.17165,43.46205 45.98565,43.61205 45.81765,43.79055 C45.20265,44.44305 44.87115,45.45105 44.93115,46.48755 L45.74265,52.02255 C45.83565,53.24055 46.47315,54.18105 47.45115,54.63105 C47.65065,55.11405 47.86965,55.57605 48.09615,56.02755 C46.56765,58.72605 44.38515,60.20805 41.91615,60.20805 C38.86815,60.20805 36.27765,57.96705 34.81365,54.05655 L34.42065,53.00955 L33.87765,53.00955 L33.30315,49.54905 Z" id="Fill-13" fill="#F9BF00"></path>
                <path d="M33.65325,74.93265 L33.65325,79.17165 C31.14375,78.97515 28.63725,78.69765 26.18925,78.33465 C25.28325,78.19965 24.59925,77.39715 24.59925,76.46715 L24.59925,71.19465 C24.59925,66.12915 28.71825,62.01015 33.78225,62.01015 L36.55875,62.01015 C37.37475,62.48115 38.23125,62.83665 39.11625,63.07665 C35.77575,65.94615 33.65325,70.19565 33.65325,74.93265" id="Fill-15" fill="#F9BF00"></path>
                <path d="M82.81935,81.7851 C82.81935,83.2266 81.75435,84.4716 80.34435,84.6831 C66.74385,86.7066 52.95435,86.7066 39.35535,84.6831 C37.94535,84.4716 36.88035,83.2266 36.88035,81.7851 L36.88035,74.9331 C36.88035,68.0931 42.44685,62.5281 49.28835,62.5281 L53.02635,62.5281 C55.14135,63.7761 57.43335,64.4091 59.84985,64.4091 C62.26935,64.4091 64.56285,63.7761 66.67785,62.5281 L70.41285,62.5281 C77.25435,62.5281 82.81935,68.0931 82.81935,74.9331 L82.81935,81.7851 Z" id="Fill-17" fill="#F28500"></path>
                <path d="M95.4009,76.46775 C95.4009,77.39625 94.7169,78.19875 93.8109,78.33375 C91.2639,78.71175 88.6569,78.99825 86.0469,79.19175 L86.0469,74.93325 C86.0469,70.23075 83.9544,66.00525 80.6559,63.13725 C81.6219,62.89725 82.5549,62.52225 83.4414,62.00925 L86.2179,62.00925 C91.2819,62.00925 95.4009,66.12825 95.4009,71.19375 L95.4009,76.46775 Z" id="Fill-19" fill="#F9BF00"></path>
            </g>
        </g>
    </g>
</svg>