<?xml version="1.0" encoding="UTF-8"?>
<svg width="120px" height="120px" viewBox="0 0 120 120" version="1.1" xmlns="http://www.w3.org/2000/svg" xmlns:xlink="http://www.w3.org/1999/xlink">
    <!-- Generator: Sketch 45.2 (43514) - http://www.bohemiancoding.com/sketch -->
    <title>Page 1</title>
    <desc>Created with Sketch.</desc>
    <defs></defs>
    <g id="Page-1" stroke="none" stroke-width="1" fill="none" fill-rule="evenodd">
        <g id="3-SERVICES" transform="translate(-260.000000, -1278.000000)">
            <g id="Page-1" transform="translate(260.000000, 1278.000000)">
                <path d="M120,60 C120,93.138 93.138,120 60,120 C26.862,120 0,93.138 0,60 C0,26.8635 26.862,0 60,0 C93.138,0 120,26.8635 120,60" id="Fill-1" fill="#FFF3E3"></path>
                <path d="M91.9995,99.1494 C91.9995,99.9519 77.673,100.6044 60,100.6044 C42.327,100.6044 28.0005,99.9519 28.0005,99.1494 C28.0005,98.3469 42.327,97.6944 60,97.6944 C77.673,97.6944 91.9995,98.3469 91.9995,99.1494" id="Fill-3" fill="#F28500"></path>
                <path d="M51.2088,41.4177 L48.4848,41.4177 C48.4593,39.4662 49.1133,36.5907 51.0183,34.8717 C52.6563,33.4092 54.7893,33.2112 56.2428,33.1917 C58.1268,33.1752 60.0453,33.1857 61.9533,33.2457 L62.0763,33.2457 C63.8853,33.3012 65.9343,33.3627 67.6203,34.8717 C69.1038,36.2097 69.8268,38.2437 70.0593,40.0062 C70.1283,40.5102 70.1553,40.9812 70.1523,41.4177 L67.4238,41.4177 L67.4238,41.3922 C67.4298,41.0562 67.4028,40.6917 67.3548,40.3197 C67.1913,39.0627 66.6933,37.6992 65.7963,36.9042 C64.8543,36.0642 63.5298,36.0177 61.9953,35.9772 L61.8663,35.9697 C60.0018,35.9097 58.1268,35.8947 56.2788,35.9217 C54.6603,35.9412 53.5608,36.2502 52.8408,36.9042 C51.6813,37.9377 51.1893,39.9057 51.2088,41.3922 L51.2088,41.4177 Z" id="Fill-5" fill="#46211B"></path>
                <path d="M72.08355,65.0376 L66.14055,65.0376 L66.14055,57.3471 L69.11055,53.7186 L72.08355,57.3471 L72.08355,65.0376 Z M89.87805,53.0436 L88.12455,53.0436 L88.12155,53.0436 L86.36655,53.0436 C82.12155,53.0436 78.64455,49.5741 78.64455,45.3276 L78.64455,43.5771 L78.64455,41.8101 C78.64455,41.6811 78.65205,41.5431 78.65805,41.4171 L71.07705,41.4171 L70.15305,41.4171 L67.42455,41.4171 L66.62355,41.4171 L51.20805,41.4171 L48.48555,41.4171 L39.98055,41.4171 C39.98505,41.5431 39.98505,41.6811 39.98505,41.8101 L39.98505,43.5771 L39.98505,45.3276 C39.98505,49.5741 36.51405,53.0436 32.27055,53.0436 L30.50955,53.0436 L28.75005,53.0436 C28.57155,53.0436 28.39605,53.0436 28.22205,53.0316 L28.22205,75.2001 C28.39605,75.1866 28.57155,75.1836 28.75005,75.1836 L30.50955,75.1836 L32.27055,75.1836 C36.51405,75.1836 39.98505,78.6606 39.98505,82.9026 L39.98505,84.6576 L39.98505,84.6636 L39.98505,86.4186 C39.98505,86.5521 39.98505,86.6811 39.98055,86.8161 L78.65805,86.8161 C78.65205,86.6811 78.64455,86.5521 78.64455,86.4186 L78.64455,84.6636 L78.64455,84.6576 L78.64455,82.9026 C78.64455,78.6606 82.12155,75.1836 86.36655,75.1836 L88.12155,75.1836 L88.12455,75.1836 L89.87805,75.1836 C90.05655,75.1836 90.24105,75.1866 90.41355,75.2001 L90.41355,53.0316 C90.24105,53.0436 90.05655,53.0436 89.87805,53.0436 L89.87805,53.0436 Z" id="Fill-7" fill="#F9BF00"></path>
                <path d="M30.5097,52.7988 C30.3402,52.7988 30.2022,52.9338 30.2022,53.1048 L30.2022,55.5573 C30.2022,55.7298 30.3402,55.8648 30.5097,55.8648 C30.6792,55.8648 30.8172,55.7298 30.8172,55.5573 L30.8172,53.1048 C30.8172,52.9338 30.6792,52.7988 30.5097,52.7988" id="Fill-9" fill="#F28500"></path>
                <path d="M30.5097,57.70305 C30.3402,57.70305 30.2022,57.84255 30.2022,58.00905 L30.2022,60.46605 C30.2022,60.63255 30.3402,60.77055 30.5097,60.77055 C30.6792,60.77055 30.8172,60.63255 30.8172,60.46605 L30.8172,58.00905 C30.8172,57.84255 30.6792,57.70305 30.5097,57.70305" id="Fill-11" fill="#F28500"></path>
                <path d="M30.5097,72.4248 C30.3402,72.4248 30.2022,72.5598 30.2022,72.7278 L30.2022,75.1833 C30.2022,75.3513 30.3402,75.4908 30.5097,75.4908 C30.6792,75.4908 30.8172,75.3513 30.8172,75.1833 L30.8172,72.7278 C30.8172,72.5598 30.6792,72.4248 30.5097,72.4248" id="Fill-13" fill="#F28500"></path>
                <path d="M30.5097,67.51605 C30.3402,67.51605 30.2022,67.65555 30.2022,67.82205 L30.2022,70.27605 C30.2022,70.44555 30.3402,70.58355 30.5097,70.58355 C30.6792,70.58355 30.8172,70.44555 30.8172,70.27605 L30.8172,67.82205 C30.8172,67.65555 30.6792,67.51605 30.5097,67.51605" id="Fill-15" fill="#F28500"></path>
                <path d="M30.5097,62.6118 C30.3402,62.6118 30.2022,62.7468 30.2022,62.9178 L30.2022,65.3703 C30.2022,65.5383 30.3402,65.6778 30.5097,65.6778 C30.6792,65.6778 30.8172,65.5383 30.8172,65.3703 L30.8172,62.9178 C30.8172,62.7468 30.6792,62.6118 30.5097,62.6118" id="Fill-17" fill="#F28500"></path>
                <path d="M59.02215,43.27005 L56.56965,43.27005 C56.39865,43.27005 56.26215,43.40505 56.26215,43.57755 C56.26215,43.74555 56.39865,43.88055 56.56965,43.88055 L59.02215,43.88055 C59.18865,43.88055 59.32965,43.74555 59.32965,43.57755 C59.32965,43.40505 59.18865,43.27005 59.02215,43.27005" id="Fill-19" fill="#F28500"></path>
                <path d="M54.11355,43.27005 L51.66105,43.27005 C51.49305,43.27005 51.35505,43.40505 51.35505,43.57755 C51.35505,43.74555 51.49305,43.88055 51.66105,43.88055 L54.11355,43.88055 C54.28455,43.88055 54.42105,43.74555 54.42105,43.57755 C54.42105,43.40505 54.28455,43.27005 54.11355,43.27005" id="Fill-21" fill="#F28500"></path>
                <path d="M49.2093,43.27005 L46.7568,43.27005 C46.5843,43.27005 46.4493,43.40505 46.4493,43.57755 C46.4493,43.74555 46.5843,43.88055 46.7568,43.88055 L49.2093,43.88055 C49.3758,43.88055 49.5168,43.74555 49.5168,43.57755 C49.5168,43.40505 49.3758,43.27005 49.2093,43.27005" id="Fill-23" fill="#F28500"></path>
                <path d="M63.9258,43.27005 L61.4748,43.27005 C61.3023,43.27005 61.1673,43.40505 61.1673,43.57755 C61.1673,43.74555 61.3023,43.88055 61.4748,43.88055 L63.9258,43.88055 C64.0983,43.88055 64.2333,43.74555 64.2333,43.57755 C64.2333,43.40505 64.0983,43.27005 63.9258,43.27005" id="Fill-25" fill="#F28500"></path>
                <path d="M44.3034,43.27005 L41.8479,43.27005 C41.6799,43.27005 41.5449,43.40505 41.5449,43.57755 C41.5449,43.74555 41.6799,43.88055 41.8479,43.88055 L44.3034,43.88055 C44.4714,43.88055 44.6079,43.74555 44.6079,43.57755 C44.6079,43.40505 44.4714,43.27005 44.3034,43.27005" id="Fill-27" fill="#F28500"></path>
                <path d="M73.7388,43.27005 L71.2863,43.27005 C71.1153,43.27005 70.9803,43.40505 70.9803,43.57755 C70.9803,43.74555 71.1153,43.88055 71.2863,43.88055 L73.7388,43.88055 C73.9068,43.88055 74.0478,43.74555 74.0478,43.57755 C74.0478,43.40505 73.9068,43.27005 73.7388,43.27005" id="Fill-29" fill="#F28500"></path>
                <path d="M78.64455,43.27005 L76.19205,43.27005 C76.02405,43.27005 75.88455,43.40505 75.88455,43.57755 C75.88455,43.74555 76.02405,43.88055 76.19205,43.88055 L78.64455,43.88055 C78.81555,43.88055 78.95205,43.74555 78.95205,43.57755 C78.95205,43.40505 78.81555,43.27005 78.64455,43.27005" id="Fill-31" fill="#F28500"></path>
                <path d="M68.83155,43.27005 L66.37905,43.27005 C66.21105,43.27005 66.07155,43.40505 66.07155,43.57755 C66.07155,43.74555 66.21105,43.88055 66.37905,43.88055 L68.83155,43.88055 C69.00405,43.88055 69.13905,43.74555 69.13905,43.57755 C69.13905,43.40505 69.00405,43.27005 68.83155,43.27005" id="Fill-33" fill="#F28500"></path>
                <path d="M49.2093,84.35745 L46.7568,84.35745 C46.5843,84.35745 46.4493,84.49245 46.4493,84.66345 C46.4493,84.83145 46.5843,84.97095 46.7568,84.97095 L49.2093,84.97095 C49.3758,84.97095 49.5168,84.83145 49.5168,84.66345 C49.5168,84.49245 49.3758,84.35745 49.2093,84.35745" id="Fill-35" fill="#F28500"></path>
                <path d="M68.83155,84.35745 L66.37905,84.35745 C66.21105,84.35745 66.07155,84.49245 66.07155,84.66345 C66.07155,84.83145 66.21105,84.97095 66.37905,84.97095 L68.83155,84.97095 C69.00405,84.97095 69.13905,84.83145 69.13905,84.66345 C69.13905,84.49245 69.00405,84.35745 68.83155,84.35745" id="Fill-37" fill="#F28500"></path>
                <path d="M44.3034,84.35745 L41.8479,84.35745 C41.6799,84.35745 41.5449,84.49245 41.5449,84.66345 C41.5449,84.83145 41.6799,84.97095 41.8479,84.97095 L44.3034,84.97095 C44.4714,84.97095 44.6079,84.83145 44.6079,84.66345 C44.6079,84.49245 44.4714,84.35745 44.3034,84.35745" id="Fill-39" fill="#F28500"></path>
                <path d="M78.64455,84.35745 L76.19205,84.35745 C76.02405,84.35745 75.88455,84.49245 75.88455,84.66345 C75.88455,84.83145 76.02405,84.97095 76.19205,84.97095 L78.64455,84.97095 C78.81555,84.97095 78.95205,84.83145 78.95205,84.66345 C78.95205,84.49245 78.81555,84.35745 78.64455,84.35745" id="Fill-41" fill="#F28500"></path>
                <path d="M73.7388,84.35745 L71.2863,84.35745 C71.1153,84.35745 70.9803,84.49245 70.9803,84.66345 C70.9803,84.83145 71.1153,84.97095 71.2863,84.97095 L73.7388,84.97095 C73.9068,84.97095 74.0478,84.83145 74.0478,84.66345 C74.0478,84.49245 73.9068,84.35745 73.7388,84.35745" id="Fill-43" fill="#F28500"></path>
                <path d="M63.9258,84.35745 L61.4748,84.35745 C61.3023,84.35745 61.1673,84.49245 61.1673,84.66345 C61.1673,84.83145 61.3023,84.97095 61.4748,84.97095 L63.9258,84.97095 C64.0983,84.97095 64.2333,84.83145 64.2333,84.66345 C64.2333,84.49245 64.0983,84.35745 63.9258,84.35745" id="Fill-45" fill="#F28500"></path>
                <path d="M59.02215,84.35745 L56.56965,84.35745 C56.39865,84.35745 56.26215,84.49245 56.26215,84.66345 C56.26215,84.83145 56.39865,84.97095 56.56965,84.97095 L59.02215,84.97095 C59.18865,84.97095 59.32965,84.83145 59.32965,84.66345 C59.32965,84.49245 59.18865,84.35745 59.02215,84.35745" id="Fill-47" fill="#F28500"></path>
                <path d="M54.11355,84.35745 L51.66105,84.35745 C51.49305,84.35745 51.35505,84.49245 51.35505,84.66345 C51.35505,84.83145 51.49305,84.97095 51.66105,84.97095 L54.11355,84.97095 C54.28455,84.97095 54.42105,84.83145 54.42105,84.66345 C54.42105,84.49245 54.28455,84.35745 54.11355,84.35745" id="Fill-49" fill="#F28500"></path>
                <path d="M88.122,52.7988 C87.951,52.7988 87.8145,52.9338 87.8145,53.1048 L87.8145,55.5573 C87.8145,55.7298 87.951,55.8648 88.122,55.8648 C88.2885,55.8648 88.4265,55.7298 88.4265,55.5573 L88.4265,53.1048 C88.4265,52.9338 88.2885,52.7988 88.122,52.7988" id="Fill-51" fill="#F28500"></path>
                <path d="M88.122,57.70305 C87.951,57.70305 87.8145,57.84255 87.8145,58.00905 L87.8145,60.46605 C87.8145,60.63255 87.951,60.77055 88.122,60.77055 C88.2885,60.77055 88.4265,60.63255 88.4265,60.46605 L88.4265,58.00905 C88.4265,57.84255 88.2885,57.70305 88.122,57.70305" id="Fill-53" fill="#F28500"></path>
                <path d="M88.122,72.4248 C87.951,72.4248 87.8145,72.5598 87.8145,72.7278 L87.8145,75.1833 C87.8145,75.3513 87.951,75.4908 88.122,75.4908 C88.2885,75.4908 88.4265,75.3513 88.4265,75.1833 L88.4265,72.7278 C88.4265,72.5598 88.2885,72.4248 88.122,72.4248" id="Fill-55" fill="#F28500"></path>
                <path d="M88.122,67.51605 C87.951,67.51605 87.8145,67.65555 87.8145,67.82205 L87.8145,70.27605 C87.8145,70.44555 87.951,70.58355 88.122,70.58355 C88.2885,70.58355 88.4265,70.44555 88.4265,70.27605 L88.4265,67.82205 C88.4265,67.65555 88.2885,67.51605 88.122,67.51605" id="Fill-57" fill="#F28500"></path>
                <path d="M88.122,62.6118 C87.951,62.6118 87.8145,62.7468 87.8145,62.9178 L87.8145,65.3703 C87.8145,65.5383 87.951,65.6778 88.122,65.6778 C88.2885,65.6778 88.4265,65.5383 88.4265,65.3703 L88.4265,62.9178 C88.4265,62.7468 88.2885,62.6118 88.122,62.6118" id="Fill-59" fill="#F28500"></path>
                <path d="M39.97995,41.4177 L34.12245,41.4177 C30.85995,41.4177 28.22295,44.0577 28.22295,47.3142 L28.22295,53.0322 C28.39545,53.0427 28.57245,53.0427 28.75095,53.0427 L30.51045,53.0427 L32.27145,53.0427 C36.51345,53.0427 39.98445,49.5732 39.98445,45.3267 L39.98445,43.5762 L39.98445,41.8092 C39.98445,41.6802 39.98445,41.5437 39.97995,41.4177" id="Fill-61" fill="#F28500"></path>
                <path d="M32.2713,75.18315 L30.5103,75.18315 L28.7508,75.18315 C28.5723,75.18315 28.3953,75.18615 28.2228,75.20115 L28.2228,80.90865 C28.2228,84.17265 30.8613,86.81565 34.1223,86.81565 L39.9798,86.81565 C39.9843,86.68065 39.9843,86.55165 39.9843,86.41815 L39.9843,84.66315 L39.9843,84.65715 L39.9843,82.90215 C39.9843,78.66015 36.5148,75.18315 32.2713,75.18315" id="Fill-63" fill="#F28500"></path>
                <path d="M89.87835,75.18315 L88.12485,75.18315 L88.12185,75.18315 L86.36685,75.18315 C82.12185,75.18315 78.64485,78.66015 78.64485,82.90215 L78.64485,84.65715 L78.64485,84.66315 L78.64485,86.41815 C78.64485,86.55165 78.65235,86.68065 78.65835,86.81565 L84.51735,86.81565 C87.77085,86.81565 90.41235,84.17265 90.41235,80.90865 L90.41235,75.20115 C90.24135,75.18615 90.05685,75.18315 89.87835,75.18315" id="Fill-65" fill="#F28500"></path>
                <path d="M84.51705,41.4177 L78.65805,41.4177 C78.65205,41.5437 78.64455,41.6802 78.64455,41.8092 L78.64455,43.5762 L78.64455,45.3267 C78.64455,49.5732 82.12155,53.0427 86.36655,53.0427 L88.12155,53.0427 L88.12455,53.0427 L89.87805,53.0427 C90.05655,53.0427 90.24105,53.0427 90.41355,53.0322 L90.41355,47.3142 C90.41355,44.0577 87.77055,41.4177 84.51705,41.4177" id="Fill-67" fill="#F28500"></path>
                <path d="M72.08355,57.3471 L72.08355,65.0376 L66.14055,65.0376 L66.14055,57.3471 L68.92605,53.9451 C68.88405,53.9106 68.84505,53.8656 68.82855,53.8101 C68.01705,51.1791 67.11555,48.0651 66.59955,44.8821 C66.56355,44.6646 66.51555,44.4456 66.47355,44.2131 C66.42705,44.0226 66.39255,43.8261 66.35805,43.6311 C66.22155,42.9306 66.11205,42.1026 66.33105,41.3316 C66.36855,41.2146 66.39855,41.1216 66.44055,41.0241 C66.59955,40.6431 66.84555,40.3191 67.17105,40.0731 C67.21455,40.0416 67.25805,40.0251 67.30605,40.0191 C67.32855,40.1226 67.34355,40.2201 67.35555,40.3191 C67.37355,40.4481 67.38705,40.5681 67.39155,40.6911 C67.23255,40.8531 67.10355,41.0421 67.00605,41.2626 C66.97455,41.3436 66.94455,41.4201 66.91905,41.5086 C66.73605,42.1506 66.83505,42.8811 66.95655,43.5186 C66.99255,43.7151 67.03155,43.9071 67.07355,44.0901 C67.12155,44.3301 67.16505,44.5566 67.20255,44.7846 C67.63005,47.4036 68.31705,49.9776 69.00405,52.2786 C69.11055,51.7536 69.23955,51.2361 69.36705,50.7261 C69.44505,50.4006 69.52605,50.0811 69.59505,49.7751 C69.72405,49.2051 69.85305,48.6321 69.98655,48.0651 C70.18905,47.1801 70.39305,46.3041 70.57005,45.4146 C70.68555,44.8266 70.80855,44.1876 70.87005,43.5441 C70.95405,42.6966 70.92705,42.0291 70.78305,41.4951 C70.68555,41.1216 70.52505,40.8111 70.30455,40.5651 C70.24305,40.5036 70.17705,40.4421 70.09905,40.3866 C70.09005,40.2651 70.07805,40.1346 70.05855,40.0056 C70.04805,39.9051 70.03005,39.8016 70.01805,39.7056 C70.07805,39.6921 70.14705,39.7056 70.20705,39.7356 C70.43355,39.8571 70.60605,39.9876 70.76055,40.1511 C71.04705,40.4781 71.25555,40.8756 71.36955,41.3376 C71.53605,41.9391 71.57505,42.6786 71.48205,43.6056 C71.41305,44.2821 71.29155,44.9316 71.17305,45.5376 C70.99005,46.4331 70.78305,47.3151 70.57905,48.2001 C70.45305,48.7686 70.31805,49.3401 70.19505,49.9101 C70.12005,50.2221 70.04055,50.5401 69.96405,50.8731 C69.72405,51.8151 69.47805,52.7991 69.42855,53.7366 C69.42405,53.8281 69.37005,53.9031 69.30255,53.9586 L72.08355,57.3471 Z" id="Fill-69" fill="#F28500"></path>
                <path d="M33.73605,46.40115 C33.27855,46.40115 32.90805,46.77315 32.90805,47.23065 C32.90805,47.68665 33.27855,48.05865 33.73605,48.05865 C34.19205,48.05865 34.56405,47.68665 34.56405,47.23065 C34.56405,46.77315 34.19205,46.40115 33.73605,46.40115 M33.73605,48.67215 C32.94105,48.67215 32.29605,48.02565 32.29605,47.23065 C32.29605,46.43565 32.94105,45.79065 33.73605,45.79065 C34.53105,45.79065 35.17755,46.43565 35.17755,47.23065 C35.17755,48.02565 34.53105,48.67215 33.73605,48.67215" id="Fill-71" fill="#F9BF00"></path>
                <path d="M33.73605,80.16945 C33.27855,80.16945 32.90805,80.54145 32.90805,81.00345 C32.90805,81.45795 33.27855,81.82995 33.73605,81.82995 C34.19205,81.82995 34.56405,81.45795 34.56405,81.00345 C34.56405,80.54145 34.19205,80.16945 33.73605,80.16945 M33.73605,82.44495 C32.94105,82.44495 32.29605,81.79695 32.29605,81.00345 C32.29605,80.20395 32.94105,79.55595 33.73605,79.55595 C34.53105,79.55595 35.17755,80.20395 35.17755,81.00345 C35.17755,81.79695 34.53105,82.44495 33.73605,82.44495" id="Fill-73" fill="#F9BF00"></path>
                <path d="M84.9009,46.40115 C84.4449,46.40115 84.0729,46.77315 84.0729,47.23065 C84.0729,47.68665 84.4449,48.05865 84.9009,48.05865 C85.3569,48.05865 85.7289,47.68665 85.7289,47.23065 C85.7289,46.77315 85.3569,46.40115 84.9009,46.40115 M84.9009,48.67215 C84.1059,48.67215 83.4594,48.02565 83.4594,47.23065 C83.4594,46.43565 84.1059,45.79065 84.9009,45.79065 C85.6944,45.79065 86.3409,46.43565 86.3409,47.23065 C86.3409,48.02565 85.6944,48.67215 84.9009,48.67215" id="Fill-75" fill="#F9BF00"></path>
                <path d="M84.9009,80.16945 C84.4389,80.16945 84.0729,80.53395 84.0729,81.00345 C84.0729,81.45795 84.4449,81.82995 84.9009,81.82995 C85.3569,81.82995 85.7289,81.45795 85.7289,81.00345 C85.7289,80.54145 85.3569,80.16945 84.9009,80.16945 M84.9009,82.44495 C84.1059,82.44495 83.4594,81.79695 83.4594,81.00345 C83.4594,80.20395 84.1059,79.55595 84.9009,79.55595 C85.6944,79.55595 86.3409,80.20395 86.3409,81.00345 C86.3409,81.79695 85.6944,82.44495 84.9009,82.44495" id="Fill-77" fill="#F9BF00"></path>
            </g>
        </g>
    </g>
</svg>