<?xml version="1.0" encoding="UTF-8"?>
<svg width="120px" height="120px" viewBox="0 0 120 120" version="1.1" xmlns="http://www.w3.org/2000/svg" xmlns:xlink="http://www.w3.org/1999/xlink">
    <!-- Generator: Sketch 45.2 (43514) - http://www.bohemiancoding.com/sketch -->
    <title>Page 1</title>
    <desc>Created with Sketch.</desc>
    <defs></defs>
    <g id="Page-1" stroke="none" stroke-width="1" fill="none" fill-rule="evenodd">
        <g id="3-SERVICES" transform="translate(-260.000000, -3838.000000)">
            <g id="Page-1" transform="translate(260.000000, 3838.000000)">
                <path d="M120,60 C120,93.138 93.138,120 60,120 C26.862,120 0,93.138 0,60 C0,26.8635 26.862,0 60,0 C93.138,0 120,26.8635 120,60" id="Fill-1" fill="#FFF3E3"></path>
                <path d="M91.9995,99.1494 C91.9995,99.9519 77.673,100.6044 60,100.6044 C42.327,100.6044 28.0005,99.9519 28.0005,99.1494 C28.0005,98.3469 42.327,97.6944 60,97.6944 C77.673,97.6944 91.9995,98.3469 91.9995,99.1494" id="Fill-3" fill="#F28500"></path>
                <path d="M46.68015,87.003 C46.12215,87.003 45.58665,86.691 45.32865,86.157 C44.66115,84.7785 41.22465,82.623 36.83715,81.5475 C32.44665,80.472 28.40265,80.7915 27.17865,81.708 C26.51565,82.203 25.57515,82.0665 25.08015,81.402 C24.58515,80.7375 24.72015,79.797 25.38615,79.302 C27.91515,77.412 33.46215,77.634 37.55115,78.633 C41.63415,79.635 46.65315,82.0065 48.02865,84.849 C48.39015,85.596 48.07815,86.493 47.33265,86.853 C47.12115,86.955 46.89915,87.003 46.68015,87.003" id="Fill-5" fill="#F9BF00"></path>
                <polygon id="Fill-7" fill="#F9BF00" points="38.9502 79.8267 36.0492 79.0557 40.6917 61.6167 43.5927 62.3877"></polygon>
                <path d="M73.32135,93.003 C73.10235,93.003 72.88035,92.955 72.66885,92.853 C71.92335,92.493 71.61135,91.596 71.97285,90.849 C73.34835,88.0065 78.36735,85.635 82.45035,84.633 C86.53935,83.6325 92.08635,83.4135 94.61535,85.302 C95.28135,85.797 95.41635,86.7375 94.92135,87.402 C94.42635,88.0665 93.48585,88.2015 92.82285,87.708 C91.59585,86.7915 87.55335,86.4705 83.16435,87.5475 C78.77685,88.623 75.34035,90.7785 74.67285,92.157 C74.41485,92.691 73.87935,93.003 73.32135,93.003" id="Fill-9" fill="#F28500"></path>
                <polygon id="Fill-11" fill="#F28500" points="81.0615 85.8603 76.4205 69.9213 79.3005 69.0828 83.9415 85.0218"></polygon>
                <path d="M40.27875,31.38135 L37.54125,42.55485 L50.37225,42.55485 L50.37225,45.55485 L36.80625,45.55485 L35.28075,51.77685 C34.12575,56.48385 37.03275,61.47435 41.83725,62.65185 C46.64025,63.82935 51.56625,60.75885 52.72125,56.05185 L57.71925,35.65635 L40.27875,31.38135 Z" id="Fill-13" fill="#F28500"></path>
                <path d="M84.7221,59.2764 L79.7211,38.8809 L62.2821,43.1559 L64.3416,51.5574 L76.6176,51.5574 L76.6176,54.5574 L65.0766,54.5574 L67.2816,63.5529 C68.4366,68.2584 73.3611,71.3289 78.1656,70.1514 C82.9701,68.9739 85.8756,63.9849 84.7221,59.2764" id="Fill-15" fill="#F9BF00"></path>
                <polygon id="Fill-17" fill="#F28500" points="59.87985 31.3521 56.19735 23.7066 58.90185 22.4046 62.58435 30.0486"></polygon>
                <polygon id="Fill-19" fill="#F28500" points="70.37985 35.0229 69.07635 32.3199 76.72035 28.6359 78.02385 31.3404"></polygon>
                <polygon id="Fill-21" fill="#F9BF00" points="67.39155 31.2642 64.55805 30.2742 67.03455 23.1957 69.86655 24.1857"></polygon>
            </g>
        </g>
    </g>
</svg>