<?xml version="1.0" encoding="UTF-8"?>
<svg width="1920px" height="194px" viewBox="0 0 1920 194" version="1.1" xmlns="http://www.w3.org/2000/svg" xmlns:xlink="http://www.w3.org/1999/xlink">
    <!-- Generator: Sketch 45.2 (43514) - http://www.bohemiancoding.com/sketch -->
    <title>FRAME2</title>
    <desc>Created with Sketch.</desc>
    <defs></defs>
    <g id="Page-1" stroke="none" stroke-width="1" fill="none" fill-rule="evenodd">
        <g id="FRAME2" fill-rule="nonzero" fill="#FFFFFF">
            <path d="M0,143.876372 C0,143.876372 5.9145,142.242515 10.986,149.599226 C16.056,156.957389 25.3515,170.035502 26.1975,165.949407 C27.042,161.861862 27.888,170.853882 32.112,160.226554 C36.339,149.599226 30.4215,144.693301 43.098,137.33659 C55.776,129.979879 56.619,126.710713 62.535,118.534172 C68.451,110.359081 70.986,102.185441 77.7465,114.448077 C84.507,126.710713 88.7325,134.885804 93.8025,125.075405 C98.874,115.265006 93.8025,110.359081 111.549,101.368513 C129.2955,92.3764934 118.3095,89.1058767 130.1415,87.4705683 C141.972,85.8352601 152.958,91.5581136 161.4075,87.4705683 C169.8585,83.384474 178.3095,67.8512213 190.1415,64.5820556 C201.972,61.3114389 201.972,51.502491 210.4215,53.953277 C218.874,56.406965 229.8585,62.9467473 234.0855,62.9467473 C238.3095,62.9467473 248.451,63.763676 252.6765,68.669601 C256.902,73.574075 269.5785,90.741185 276.339,90.741185 C283.098,90.741185 290.7045,89.9228054 294.0855,80.1138573 C297.465,70.3034583 294.9285,67.0342926 304.224,70.3034583 C313.521,73.574075 316.902,63.763676 325.3515,60.4930593 C333.8025,57.2238936 338.028,59.6775816 348.168,62.1283676 C358.3095,64.5820556 357.465,63.763676 364.224,71.120387 C370.986,78.4785489 367.605,69.4850786 376.056,71.9387667 C384.507,74.3910036 395.493,93.193422 403.098,85.8352601 C410.7045,78.4785489 403.098,66.215913 414.9285,67.0342926 C426.7605,67.8512213 425.9145,65.3989844 434.3655,60.4930593 C442.8165,55.5885852 443.661,44.9612576 458.028,46.596566 C472.395,48.2318742 484.224,53.6151875 487.605,46.4282466 C490.986,39.239855 504.507,26.1602902 513.8025,26.1602902 C523.098,26.1602902 529.014,21.2543652 537.465,26.1602902 C545.9145,31.0647642 543.381,23.4352601 550.1415,23.9822975 C556.902,24.5249819 561.972,23.7080532 567.888,18.8035793 C573.8025,13.8976542 574.6485,12.2623458 581.4075,10.6284885 C588.168,8.99318018 613.521,4.90563483 626.1975,10.6284885 C638.874,16.3498911 645.6345,23.7080532 656.619,20.4374366 C667.605,17.1682709 681.972,19.6190568 681.972,19.6190568 C681.972,19.6190568 685.3515,32.7000726 691.2675,37.6045466 C697.1835,42.5104716 713.2395,39.239855 723.381,34.3353809 C733.521,29.4294558 736.902,24.5249819 744.507,24.5249819 C752.112,24.5249819 768.168,18.8035793 781.6905,21.2543652 C795.2115,23.7080532 822.2535,26.9772189 829.8585,31.0647642 C837.465,35.1523095 845.0715,37.6045466 852.6765,38.4214752 C860.2815,39.239855 870.4215,44.9612576 875.493,49.8671826 C880.563,54.7716566 904.224,69.4850786 909.2955,70.3034583 C914.3655,71.120387 947.3235,72.7556953 967.605,70.3034583 C987.888,67.8512213 998.028,74.3910036 1012.395,67.0342926 C1026.7605,59.6775816 1045.3515,53.1363483 1052.958,58.0422733 C1060.563,62.9467473 1095.2115,83.384474 1107.888,83.384474 C1120.563,83.384474 1131.549,86.6521887 1148.451,81.7491657 C1165.3515,76.8446916 1177.1835,73.574075 1191.549,74.3910036 C1205.9145,75.2093834 1208.451,71.120387 1216.056,69.4850786 C1223.661,67.8512213 1238.028,79.2954777 1248.1695,74.3910036 C1258.3095,69.4850786 1265.0715,68.669601 1269.2955,71.120387 C1273.521,73.574075 1290.4215,72.7556953 1295.493,65.3989844 C1300.563,58.0422733 1301.4075,58.0422733 1305.6345,55.5885852 C1309.8585,53.1363483 1307.3235,45.7796373 1312.395,49.0488029 C1317.465,52.3179686 1320.8445,58.0422733 1330.986,57.2238936 C1341.126,56.406965 1346.1975,53.1363483 1352.112,51.502491 C1358.028,49.8671826 1371.549,48.2318742 1379.1555,51.502491 C1386.7605,54.7716566 1384.224,75.2093834 1401.126,62.1283676 C1418.028,49.0488029 1429.8585,48.2318742 1439.1555,49.0488029 C1448.451,49.8671826 1450.986,50.6841113 1454.3655,49.0488029 C1457.7465,47.4134946 1492.395,35.9692382 1504.224,41.6920919 C1516.056,47.4134946 1535.493,53.1363483 1540.563,55.5885852 C1545.6345,58.0422733 1557.465,67.8512213 1557.465,62.9467473 C1557.465,58.0422733 1561.6905,57.2238936 1573.521,57.2238936 C1585.3515,57.2238936 1599.7185,67.0342926 1613.2395,66.215913 C1626.7605,65.3989844 1669.014,67.8512213 1673.2395,71.120387 C1677.465,74.3910036 1701.126,84.4814511 1711.2675,87.2021282 C1721.4075,89.9228054 1746.7605,99.7332043 1755.2115,103.00237 C1763.661,106.272987 1766.1975,105.454607 1762.8165,112.812769 C1759.437,120.16948 1754.7285,129.979879 1764.267,131.615187 C1773.8025,133.250496 1787.3235,137.33659 1791.5505,142.242515 C1795.776,147.146989 1799.157,150.417606 1805.9145,152.868392 C1812.6765,155.32208 1813.521,157.774317 1819.4385,156.957389 C1825.353,156.139008 1836.3405,156.139008 1839.7185,160.226554 C1843.098,164.3141 1854.0855,178.210593 1859.157,180.664281 C1864.224,183.116517 1869.2955,188.837921 1876.0575,192.108537 C1882.8165,195.377703 1920,192.108537 1920,192.108537 L1920,0.00116082225 L0,0.00116082225 L0,143.876372 Z" id="Fill-1"></path>
            <path d="M19.60545,161.363724 C19.60545,161.363724 28.17195,175.483675 33.80295,175.483675 C39.43395,175.483675 46.19595,176.574849 50.70345,175.483675 C55.21245,174.398307 49.57395,165.674728 59.71545,156.956953 C69.85695,148.239178 72.11145,156.956953 79.99845,146.05393 C87.88695,135.158162 81.60195,123.223458 88.12545,129.190085 C94.64745,135.158162 113.80095,142.784764 118.30995,136.244982 C122.81895,129.705199 117.18195,115.540266 130.70145,117.718259 C144.22245,119.8948 137.46195,123.806771 148.73295,117.4948 C160.00245,111.177025 162.25395,107.90786 176.90295,111.177025 C191.54745,114.447642 200.28195,120.169045 204.50745,125.893349 C208.73295,131.614752 216.33795,134.885369 222.25395,132.433132 C228.16845,129.979444 239.15445,129.162515 244.22445,128.344135 C249.29595,127.527207 240.00045,115.264571 244.22445,117.718259 C248.44995,120.169045 256.05645,123.439661 261.12645,120.169045 C266.19795,116.899879 273.80295,113.508827 281.40795,109.889964 C289.01295,106.272551 294.92895,97.9160821 310.98645,96.7828294 C327.04245,95.6452237 333.80295,106.908102 343.09845,96.7828294 C352.39395,86.6532043 385.35195,72.756711 388.73295,69.4860943 C392.11245,66.2169286 445.96545,49.3675936 446.16495,49.2094317 C446.36145,49.0498186 469.85895,58.8587667 474.92895,62.946312 C480.00045,67.0338573 480.84495,71.1214026 491.82945,68.6691657 C502.81695,66.2169286 530.70345,64.5816202 541.69095,67.852237 C552.67695,71.1214026 556.05645,76.8442563 565.35195,67.0338573 C574.64745,57.2234583 564.50745,50.1830713 579.71745,49.2094317 C594.92895,48.2314389 598.30995,44.9608222 606.76095,35.9688028 C615.21045,26.9782345 615.21045,26.9782345 620.28195,22.8892381 C625.35195,18.8031439 638.02695,4.90519951 638.02695,4.90519951 L714.36945,29.4290205 C714.36945,29.4290205 729.01395,37.0614268 727.88895,43.6012092 C726.76095,50.1424425 720.12195,66.4911729 727.94895,69.7603386 C735.77595,73.0309552 747.88695,89.3172913 754.64745,90.4374849 C761.40795,91.5591294 767.32395,90.9525997 773.23995,90.4374849 C779.15445,89.923821 794.36595,98.9158404 797.74695,100.551149 C801.12645,102.185006 812.95695,103.820314 823.94445,107.90786 C834.92895,111.995405 848.44995,112.812334 853.51995,112.812334 C858.59145,112.812334 854.36595,99.732769 861.97245,100.551149 C869.57745,101.368077 883.94445,97.9160821 889.85895,96.7828294 C895.77495,95.6452237 926.19795,97.0991535 940.56345,96.7828294 C954.92895,96.4621524 965.91495,95.6452237 970.98645,101.368077 C976.05645,107.090931 1004.78895,118.533736 1012.39395,122.622733 C1020.00045,126.710278 1028.44995,123.439661 1036.05645,121.804353 C1043.66145,120.169045 1058.02695,121.804353 1074.08445,116.899879 C1090.14045,111.995405 1094.36595,108.726239 1100.28195,106.272551 C1106.19795,103.820314 1115.49345,103.001935 1118.02695,102.185006 C1120.56345,101.368077 1138.30995,97.9160821 1145.07195,96.7828294 C1151.82945,95.6452237 1168.73295,87.6819831 1175.49345,90.4374849 C1182.25395,93.1944378 1188.59145,92.9956468 1189.43745,90.4374849 C1190.28195,87.8793228 1193.66145,88.6977025 1196.19795,87.8793228 C1198.73295,87.0623941 1203.80295,84.2009673 1207.18395,84.2009673 C1210.56345,84.2009673 1210.56345,81.7487304 1215.63495,83.3840386 C1220.70345,85.019347 1221.12645,86.2440145 1226.19795,82.565659 C1231.26645,78.8873035 1236.33795,86.6532043 1242.25395,80.5226118 C1248.16995,74.3920194 1251.94245,72.6928657 1251.94245,72.6928657 C1251.94245,72.6928657 1272.67695,77.659734 1276.90095,80.5226118 C1281.12645,83.3840386 1291.69095,89.3172913 1300.98645,90.4374849 C1310.28195,91.5591294 1317.88695,99.1422007 1320.00045,96.7828294 C1322.11245,94.4191051 1313.23995,89.1054414 1316.19795,81.3395404 C1319.15445,73.5736396 1317.46395,74.3920194 1326.76095,72.3475212 C1336.05645,70.303023 1340.28195,70.303023 1347.04245,65.3985489 C1353.80295,60.492624 1390.98645,55.589601 1396.05645,58.8587667 C1401.12645,62.1279322 1422.25395,45.779202 1429.01295,44.1438936 C1435.77495,42.5100363 1430.70345,46.5961306 1429.01295,53.9542926 C1427.32395,61.3110036 1418.02695,67.852237 1425.63495,73.5736396 C1433.23995,79.2950422 1437.04245,76.0258767 1442.95695,73.9813785 C1448.87445,71.9383312 1454.78895,70.303023 1458.16995,72.3475212 C1461.54945,74.3920194 1459.85895,74.3920194 1468.73295,76.0258767 C1477.60545,77.659734 1473.38145,77.2519951 1487.32395,76.0258767 C1501.26645,74.7997581 1527.04245,78.0703749 1533.38145,78.4781136 C1539.71745,78.8873035 1541.40795,80.113422 1545.21045,82.565659 C1549.01295,85.019347 1554.50745,85.019347 1559.57745,87.0623941 C1564.64745,89.1054414 1589.57745,91.1484885 1593.80295,93.6021765 C1598.02695,96.0544135 1616.19795,99.732769 1622.53545,100.551149 C1628.87445,101.368077 1634.78895,101.777267 1637.74695,103.001935 C1640.70345,104.229504 1637.74695,105.864813 1637.74695,107.90786 C1637.74695,109.950907 1637.83845,118.125998 1639.06095,120.579686 C1640.28195,123.030472 1640.70345,127.527207 1644.50745,129.979444 C1648.30995,132.433132 1658.87445,133.657799 1659.71745,134.476179 C1660.56345,135.293108 1665.63495,140.606771 1669.01295,143.06046 C1672.39395,145.511245 1678.73295,143.06046 1679.15445,146.329625 C1679.57745,149.600242 1685.49345,154.913905 1687.18395,157.773882 C1688.87445,160.635309 1685.91495,165.132043 1693.09845,164.721402 C1700.28195,164.313664 1701.12645,162.678355 1705.77495,166.356711 C1710.42195,170.036517 1708.30995,170.036517 1718.44995,171.671826 C1728.59145,173.305683 1728.16995,174.531801 1730.28195,170.445708 C1732.39395,166.356711 1730.28195,163.905925 1736.19795,161.453688 C1742.11245,159 1742.95695,159.409189 1750.98645,154.503265 C1759.01295,149.600242 1753.09845,148.372672 1761.97245,149.189601 C1770.84495,150.00798 1768.73295,150.82491 1775.49345,151.643289 C1782.25395,152.460217 1786.47945,149.600242 1789.01295,149.600242 C1791.55095,149.600242 1799.57745,144.285127 1807.18395,145.103507 C1814.78895,145.920435 1739.15445,0.000725513905 1739.15445,0.000725513905 L19.60545,0.000725513905 L19.60545,161.363724 Z" id="Fill-4" opacity="0.5"></path>
            <path d="M0,185.567884 C0,185.567884 20.619,188.02012 19.605,185.567884 C18.5925,183.117097 11.8305,180.268731 23.661,175.969335 C35.493,171.671391 33.8025,175.484691 33.8025,175.484691 L58.5945,146.603434 C58.5945,146.603434 89.016,147.146118 94.6485,146.603434 C100.281,146.057848 104.5335,154.618911 107.04,146.603434 C109.548,138.582152 120.564,144.42399 129.5805,141.700411 C138.5925,138.972479 162.2535,139.518065 166.7625,141.700411 C171.2655,143.876953 187.044,143.876953 192.6765,146.057848 C198.3075,148.238742 207.3225,147.691705 206.7585,144.969577 C206.1975,142.243096 198.8715,140.06075 201.6885,137.337171 C204.507,134.613591 204.5325,126.60682 206.784,128.433664 C209.0355,130.257606 228.729,110.633906 228.729,110.633906 L281.124,105.185296 C281.124,105.185296 299.1555,109.542733 307.605,114.447207 C316.056,119.351681 325.776,118.534752 330,119.760871 C334.224,120.986989 332.535,124.257606 344.3655,122.214559 C356.1975,120.17006 359.1555,119.351681 365.493,119.760871 C371.8305,120.17006 386.1975,119.351681 390.8445,121.396179 C395.493,123.440677 402.2535,126.709843 404.3655,124.665345 C406.479,122.622297 403.098,120.986989 406.479,118.534752 C409.8585,116.082515 414.0855,111.587231 414.507,113.222539 C414.9285,114.856397 422.112,116.491705 428.028,117.308634 C433.944,118.125562 435.6345,121.396179 443.661,119.760871 C451.6905,118.125562 452.535,117.308634 454.6485,119.760871 C456.7605,122.214559 443.2395,126.709843 461.4075,125.892914 C479.5785,125.075985 484.6485,124.257606 487.1835,124.257606 C489.7185,124.257606 487.1835,119.351681 487.1835,119.351681 C487.1835,119.351681 485.2125,113.630278 488.3115,112.40416 C491.4075,111.17659 489.2955,111.587231 494.3655,109.542733 C499.437,107.498235 501.972,106.681306 503.661,103.41214 C505.3515,100.141524 504.507,94.6464813 506.619,96.7823941 C508.7325,98.9154051 514.224,97.5079081 517.1835,96.7823941 C520.1415,96.0554292 520.1415,94.8278598 523.521,92.3756227 C526.902,89.9233857 529.0275,90.3253204 539.1555,80.5221765 C549.282,70.7190327 546.012,69.485659 549.282,70.7190327 C552.5505,71.9509552 560.7045,71.1209673 562.8165,72.7562757 C564.9285,74.3915841 572.112,79.7052478 575.9145,79.296058 C579.7185,78.8868682 583.098,82.1560338 586.902,81.7482951 C590.7045,81.3391051 597.465,82.1560338 599.1555,84.6097219 C600.8445,87.0619588 599.1555,84.4109311 605.0715,87.9848125 C610.986,91.5586941 614.3655,95.4634099 613.944,96.7823941 C613.521,98.0984764 616.125,99.3231439 613.977,101.776832 C611.8305,104.229069 612.3525,104.638259 614.8395,106.681306 C617.3235,108.725804 619.014,108.725804 620.7045,107.907424 C622.395,107.090496 620.7045,103.819879 624.507,104.229069 C628.3095,104.638259 623.661,101.369093 633.8025,100.958452 C643.944,100.550713 649.8585,99.960145 652.395,96.7823941 C654.9285,93.6017412 655.3515,87.2738089 659.5785,87.9848125 C663.8025,88.6972672 665.493,90.1337847 666.7605,87.9848125 C668.028,85.8358404 688.7325,85.8358404 692.535,83.7913422 C696.339,81.7482951 694.6485,80.5221765 702.2535,80.9313664 C709.8585,81.3391051 714.0855,83.3836033 725.0715,81.7482951 C736.056,80.1129867 747.042,81.3391051 748.7325,81.7482951 C750.4215,82.1560338 979.437,93.1940023 979.437,93.1940023 L1030.2855,123.180943 L1091.8305,96.7823941 C1091.8305,96.7823941 1132.398,99.1867473 1136.904,103.545635 C1141.4085,107.907424 1155.495,118.26341 1160.001,118.808996 C1164.507,119.351681 1164.507,126.435598 1166.7615,120.986989 C1169.016,115.539831 1171.272,112.811898 1174.0875,115.539831 C1176.903,118.260508 1180.2825,120.444305 1180.2825,120.444305 C1180.2825,120.444305 1178.595,124.803192 1182.537,122.079613 C1186.479,119.351681 1184.2275,119.351681 1189.2975,119.894365 C1194.369,120.444305 1192.113,137.631729 1203.945,128.491705 C1215.777,119.351681 1212.96,117.717823 1219.719,116.082515 C1226.481,114.447207 1230.4215,111.17659 1233.8025,112.269214 C1237.1835,113.354583 1237.7445,108.995695 1243.944,106.816251 C1250.1435,104.638259 1259.157,105.180943 1261.974,108.45156 C1264.7895,111.719274 1246.1985,125.093398 1259.718,128.491705 C1273.2405,131.890012 1268.1735,124.257606 1275.495,123.164982 C1282.8165,122.079613 1308.1695,123.458089 1305.3525,128.491705 C1302.537,133.52532 1292.958,135.701862 1295.2125,137.879855 C1297.4685,140.065103 1295.649,142.243096 1305.5715,141.700411 C1315.494,141.150472 1325.0715,148.781427 1325.0715,148.781427 C1325.0715,148.781427 1325.631,153.6859 1331.832,154.228585 C1338.0315,154.778524 1344.7905,162.408028 1349.8605,161.318307 C1354.932,160.225683 1365.0735,161.860992 1363.383,157.499202 C1361.6925,153.143217 1359.999,150.416734 1367.3235,149.324111 C1374.6495,148.238742 1383.096,145.512261 1387.605,143.876953 C1392.114,142.243096 1421.4075,141.150472 1423.098,138.972479 C1424.7885,136.794486 1428.1695,128.364015 1429.8585,128.491705 C1431.549,128.619395 1436.058,125.35023 1437.7485,125.35023 C1439.439,125.35023 1443.381,123.714921 1445.6355,124.803192 C1447.89,125.892914 1457.4675,129.999323 1464.225,128.491705 C1470.987,126.984087 1480.563,125.640435 1482.2535,128.491705 C1483.944,131.342975 1489.014,134.068005 1491.27,136.2489 C1493.523,138.429794 1499.157,144.42399 1500.2835,146.057848 C1501.4085,147.691705 1500.8445,152.050593 1504.224,149.874051 C1507.605,147.691705 1505.9145,146.057848 1511.55,142.788682 C1517.1855,139.518065 1514.931,138.426892 1520.001,137.337171 C1525.0725,136.2489 1533.5265,136.791584 1537.4685,131.340073 C1541.4075,125.892914 1544.7885,124.257606 1547.043,122.079613 C1549.2975,119.894365 1550.988,119.894365 1552.6785,122.622297 C1554.369,125.35023 1546.479,132.725804 1556.619,128.491705 C1566.7605,124.257606 1558.875,133.520967 1562.2545,136.245998 C1565.6355,138.972479 1566.1965,141.150472 1571.832,143.876953 C1577.4675,146.603434 1581.4095,151.507908 1587.606,153.6859 C1593.8025,155.863893 1588.1715,156.956517 1587.606,160.769818 C1587.042,164.588923 1592.115,164.586022 1594.932,164.038984 C1597.7475,163.496299 1607.889,152.050593 1609.5795,151.507908 C1611.27,150.959419 1611.2655,151.507908 1617.465,150.416734 C1623.6645,149.324111 1630.989,141.700411 1633.8045,140.065103 C1636.62,138.429794 1636.6245,132.702588 1640.5665,131.340073 C1644.507,129.979008 1664.7885,125.892914 1664.7885,125.892914 C1664.7885,125.892914 1705.9125,141.150472 1709.2935,145.512261 C1712.673,149.874051 1724.7885,168.675018 1730.2815,170.445271 C1735.776,172.214074 1730.1435,171.671391 1739.1555,172.214074 C1748.166,172.764015 1754.9265,170.458332 1760.562,175.969335 C1766.1975,181.48179 1774.6485,178.753857 1778.028,178.753857 C1781.4075,178.753857 1787.0415,182.024473 1793.8005,182.024473 C1800.5625,182.024473 1819.1565,184.752406 1825.353,186.660508 C1831.5495,188.562805 1832.112,192.926046 1835.493,186.660508 C1838.874,180.389166 1865.352,175.905489 1867.0425,175.969335 C1868.73,176.033179 1882.8165,165.131608 1880.5635,162.403675 C1878.3075,159.682999 1839.4335,112.266312 1834.9275,105.180943 C1830.4215,98.0984764 1752.6765,53.4111729 1687.887,32.699202 C1623.096,11.988682 1300.8435,14.7151632 1300.8435,14.7151632 L744.7875,0.000290205563 L0,0.000290205563 L0,185.567884 Z" id="Fill-6" opacity="0.3"></path>
        </g>
    </g>
</svg>