<?xml version="1.0" encoding="UTF-8"?>
<svg width="40px" height="40px" viewBox="0 0 40 40" version="1.1" xmlns="http://www.w3.org/2000/svg" xmlns:xlink="http://www.w3.org/1999/xlink">
    <!-- Generator: Sketch 45.2 (43514) - http://www.bohemiancoding.com/sketch -->
    <title>Page 1</title>
    <desc>Created with Sketch.</desc>
    <defs></defs>
    <g id="Page-1" stroke="none" stroke-width="1" fill="none" fill-rule="evenodd">
        <g id="4-CONTACT-US" transform="translate(-669.000000, -1168.000000)">
            <g id="Group" transform="translate(279.000000, 1074.000000)">
                <g id="Page-1" transform="translate(390.000000, 94.000000)">
                    <polygon id="Fill-1" fill="#FFFFFF" points="0 40 40 40 40 0 0 0"></polygon>
                    <g id="Group-12" transform="translate(8.000000, 0.000000)" fill="#231F20">
                        <path d="M4.2466,1 C2.8536,1 1.7206,2.147 1.7206,3.559 L1.7206,36.441 C1.7206,37.853 2.8536,39 4.2466,39 L19.7536,39 C21.1466,39 22.2796,37.853 22.2796,36.441 L22.2796,3.559 C22.2796,2.147 21.1466,1 19.7536,1 L4.2466,1 Z M19.7536,40 L4.2466,40 C2.3026,40 0.7206,38.403 0.7206,36.441 L0.7206,3.559 C0.7206,1.597 2.3026,0 4.2466,0 L19.7536,0 C21.6976,0 23.2796,1.597 23.2796,3.559 L23.2796,36.441 C23.2796,38.403 21.6976,40 19.7536,40 L19.7536,40 Z" id="Fill-2"></path>
                        <path d="M14.2065,4.25 L9.7935,4.25 C9.5175,4.25 9.2935,4.026 9.2935,3.75 C9.2935,3.474 9.5175,3.25 9.7935,3.25 L14.2065,3.25 C14.4825,3.25 14.7065,3.474 14.7065,3.75 C14.7065,4.026 14.4825,4.25 14.2065,4.25" id="Fill-4"></path>
                        <path d="M12,33.9463 C11.337,33.9463 10.798,34.4943 10.798,35.1673 C10.798,35.8403 11.337,36.3873 12,36.3873 C12.663,36.3873 13.202,35.8403 13.202,35.1673 C13.202,34.4943 12.663,33.9463 12,33.9463 M12,37.3873 C10.786,37.3873 9.798,36.3913 9.798,35.1673 C9.798,33.9423 10.786,32.9463 12,32.9463 C13.214,32.9463 14.202,33.9423 14.202,35.1673 C14.202,36.3913 13.214,37.3873 12,37.3873" id="Fill-6"></path>
                        <path d="M20.3335,7.458 L3.6665,7.458 C3.3905,7.458 3.1665,7.234 3.1665,6.958 C3.1665,6.682 3.3905,6.458 3.6665,6.458 L20.3335,6.458 C20.6095,6.458 20.8335,6.682 20.8335,6.958 C20.8335,7.234 20.6095,7.458 20.3335,7.458" id="Fill-8"></path>
                        <path d="M20.3335,31.375 L3.6665,31.375 C3.3905,31.375 3.1665,31.151 3.1665,30.875 C3.1665,30.599 3.3905,30.375 3.6665,30.375 L20.3335,30.375 C20.6095,30.375 20.8335,30.599 20.8335,30.875 C20.8335,31.151 20.6095,31.375 20.3335,31.375" id="Fill-10"></path>
                    </g>
                </g>
            </g>
        </g>
    </g>
</svg>