<?xml version="1.0" encoding="UTF-8"?>
<svg width="40px" height="40px" viewBox="0 0 40 40" version="1.1" xmlns="http://www.w3.org/2000/svg" xmlns:xlink="http://www.w3.org/1999/xlink">
    <!-- Generator: Sketch 45.2 (43514) - http://www.bohemiancoding.com/sketch -->
    <title>Page 1</title>
    <desc>Created with Sketch.</desc>
    <defs></defs>
    <g id="Page-1" stroke="none" stroke-width="1" fill="none" fill-rule="evenodd">
        <g id="4-CONTACT-US" transform="translate(-279.000000, -1252.000000)">
            <g id="Group" transform="translate(279.000000, 1074.000000)">
                <g id="Page-1" transform="translate(0.000000, 178.000000)">
                    <polygon id="Fill-1" fill="#FFFFFF" points="0 40 40 40 40 0 0 0"></polygon>
                    <path d="M5.5361,35 C5.3801,35 5.2531,34.87 5.2531,34.711 L5.2531,17.945 L33.6031,35 L19.9991,35 L5.5361,35 Z M5.5081,14.825 C5.9321,14.559 7.0971,13.913 7.8731,13.487 L7.8731,18.354 L5.2531,16.778 L5.2531,15.422 C5.2551,15.307 5.3061,14.952 5.5081,14.825 L5.5081,14.825 Z M9.1561,5 L30.8101,5 C30.9671,5 31.0941,5.129 31.0941,5.287 L31.0941,18.825 L19.8751,25.575 L8.8731,18.956 L8.8731,5.287 C8.8731,5.129 9.0001,5 9.1561,5 L9.1561,5 Z M20.8451,26.158 L34.7461,17.794 L34.7461,34.521 L20.8451,26.158 Z M34.4911,14.825 C34.6931,14.952 34.7441,15.308 34.7461,15.418 L34.7461,16.646 L34.7381,16.632 L32.0941,18.224 L32.0941,13.469 C32.8691,13.895 34.0611,14.555 34.4911,14.825 L34.4911,14.825 Z M35.0231,13.978 C34.4551,13.621 32.7111,12.666 32.0941,12.329 L32.0941,5.287 C32.0941,4.577 31.5181,4 30.8101,4 L9.1561,4 C8.4481,4 7.8731,4.577 7.8731,5.287 L7.8731,12.347 C7.2301,12.697 5.5351,13.627 4.9761,13.978 C4.2741,14.42 4.2531,15.317 4.2531,15.418 L4.2531,34.711 C4.2531,35.422 4.8281,36 5.5361,36 L19.9991,36 L34.4631,36 C35.1701,36 35.7461,35.422 35.7461,34.711 L35.7461,15.418 C35.7461,15.317 35.7251,14.42 35.0231,13.978 L35.0231,13.978 Z" id="Fill-2" fill="#231F20"></path>
                </g>
            </g>
        </g>
    </g>
</svg>