<?xml version="1.0" encoding="UTF-8"?>
<svg width="165px" height="165px" viewBox="0 0 165 165" version="1.1" xmlns="http://www.w3.org/2000/svg" xmlns:xlink="http://www.w3.org/1999/xlink">
    <!-- Generator: Sketch 45.2 (43514) - http://www.bohemiancoding.com/sketch -->
    <title>Page 1</title>
    <desc>Created with Sketch.</desc>
    <defs></defs>
    <g id="Page-1" stroke="none" stroke-width="1" fill="none" fill-rule="evenodd">
        <g id="1-HOMEPAGE-1" transform="translate(-413.000000, -989.000000)">
            <g id="Page-1" transform="translate(413.000000, 989.000000)">
                <path d="M165,82.5 C165,128.063 128.063,165 82.5,165 C36.937,165 0,128.063 0,82.5 C0,36.937 36.937,0 82.5,0 C128.063,0 165,36.937 165,82.5" id="Fill-1" fill="#FFF3E3"></path>
                <path d="M66.6289,84.8027 C66.6289,94.0967 49.8009,118.6187 49.8009,118.6187 C49.8009,118.6187 32.9729,94.0967 32.9729,84.8027 C32.9729,75.5097 40.5069,67.9747 49.8009,67.9747 C59.0949,67.9747 66.6289,75.5097 66.6289,84.8027" id="Fill-3" fill="#F9BF00"></path>
                <path d="M57.7109,84.0615 C57.7109,88.4295 54.1689,91.9715 49.8009,91.9715 C45.4329,91.9715 41.8909,88.4295 41.8909,84.0615 C41.8909,79.6925 45.4329,76.1515 49.8009,76.1515 C54.1689,76.1515 57.7109,79.6925 57.7109,84.0615" id="Fill-5" fill="#FFF3E3"></path>
                <path d="M35.8564,86.2812 C35.8564,78.2072 42.4014,71.6622 50.4754,71.6622 C55.1944,71.6622 59.3904,73.8992 62.0634,77.3692 C59.5384,72.9872 54.8074,70.0372 49.3864,70.0372 C41.3134,70.0372 34.7684,76.5822 34.7684,84.6552 C34.7684,88.0102 35.8994,91.0992 37.7984,93.5662 C36.5634,91.4222 35.8564,88.9332 35.8564,86.2812" id="Fill-7" fill="#F28500"></path>
                <path d="M45.832,112.1826 C48.125,116.0256 49.801,118.6196 49.801,118.6196 C49.801,118.6196 66.629,94.0966 66.629,84.8026 C66.629,84.3156 66.603,83.8326 66.562,83.3556 C65.898,85.9376 64.959,88.4516 63.807,90.8506 C60.622,97.4806 55.911,101.7296 50.894,107.1086 C49.277,108.8426 47.594,110.5566 45.832,112.1826" id="Fill-9" fill="#F28500"></path>
                <path d="M102.1494,43.4395 C102.1494,52.7335 85.3214,77.2555 85.3214,77.2555 C85.3214,77.2555 68.4934,52.7335 68.4934,43.4395 C68.4934,34.1465 76.0274,26.6115 85.3214,26.6115 C94.6154,26.6115 102.1494,34.1465 102.1494,43.4395" id="Fill-11" fill="#F9BF00"></path>
                <path d="M93.2314,42.6982 C93.2314,47.0662 89.6894,50.6082 85.3214,50.6082 C80.9534,50.6082 77.4114,47.0662 77.4114,42.6982 C77.4114,38.3292 80.9534,34.7882 85.3214,34.7882 C89.6894,34.7882 93.2314,38.3292 93.2314,42.6982" id="Fill-13" fill="#FFF3E3"></path>
                <path d="M71.377,44.918 C71.377,36.844 77.922,30.299 85.996,30.299 C90.715,30.299 94.911,32.536 97.584,36.006 C95.059,31.624 90.328,28.674 84.907,28.674 C76.834,28.674 70.289,35.219 70.289,43.292 C70.289,46.647 71.42,49.736 73.319,52.203 C72.084,50.059 71.377,47.57 71.377,44.918" id="Fill-15" fill="#F28500"></path>
                <path d="M81.3525,70.8193 C83.6455,74.6623 85.3215,77.2563 85.3215,77.2563 C85.3215,77.2563 102.1495,52.7333 102.1495,43.4393 C102.1495,42.9523 102.1235,42.4693 102.0825,41.9923 C101.4185,44.5743 100.4795,47.0883 99.3275,49.4873 C96.1425,56.1173 91.4315,60.3663 86.4145,65.7453 C84.7975,67.4793 83.1145,69.1933 81.3525,70.8193" id="Fill-17" fill="#F28500"></path>
                <path d="M132.0264,95.8428 C132.0264,105.1368 115.1984,129.6588 115.1984,129.6588 C115.1984,129.6588 98.3704,105.1368 98.3704,95.8428 C98.3704,86.5488 105.9044,79.0148 115.1984,79.0148 C124.4924,79.0148 132.0264,86.5488 132.0264,95.8428" id="Fill-19" fill="#F9BF00"></path>
                <path d="M123.1084,95.1016 C123.1084,99.4696 119.5664,103.0116 115.1984,103.0116 C110.8304,103.0116 107.2884,99.4696 107.2884,95.1016 C107.2884,90.7326 110.8304,87.1916 115.1984,87.1916 C119.5664,87.1916 123.1084,90.7326 123.1084,95.1016" id="Fill-21" fill="#FFF3E3"></path>
                <path d="M101.2539,97.3213 C101.2539,89.2483 107.7989,82.7023 115.8729,82.7023 C120.5919,82.7023 124.7879,84.9393 127.4609,88.4103 C124.9359,84.0273 120.2049,81.0773 114.7839,81.0773 C106.7109,81.0773 100.1659,87.6223 100.1659,95.6953 C100.1659,99.0503 101.2969,102.1393 103.1959,104.6063 C101.9609,102.4623 101.2539,99.9733 101.2539,97.3213" id="Fill-23" fill="#F28500"></path>
                <path d="M111.2295,123.2227 C113.5225,127.0657 115.1985,129.6597 115.1985,129.6597 C115.1985,129.6597 132.0265,105.1367 132.0265,95.8427 C132.0265,95.3557 132.0005,94.8727 131.9595,94.3957 C131.2955,96.9777 130.3565,99.4917 129.2045,101.8907 C126.0195,108.5207 121.3085,112.7697 116.2915,118.1487 C114.6745,119.8827 112.9915,121.5967 111.2295,123.2227" id="Fill-25" fill="#F28500"></path>
                <path d="M126.5,136.3301 C126.5,137.4341 106.801,138.3301 82.5,138.3301 C58.199,138.3301 38.5,137.4341 38.5,136.3301 C38.5,135.2261 58.199,134.3301 82.5,134.3301 C106.801,134.3301 126.5,135.2261 126.5,136.3301" id="Fill-27" fill="#F28500"></path>
            </g>
        </g>
    </g>
</svg>