<?xml version="1.0" encoding="UTF-8"?>
<svg width="165px" height="165px" viewBox="0 0 165 165" version="1.1" xmlns="http://www.w3.org/2000/svg" xmlns:xlink="http://www.w3.org/1999/xlink">
    <!-- Generator: Sketch 45.2 (43514) - http://www.bohemiancoding.com/sketch -->
    <title>Page 1</title>
    <desc>Created with Sketch.</desc>
    <defs></defs>
    <g id="Page-1" stroke="none" stroke-width="1" fill="none" fill-rule="evenodd">
        <g id="1-HOMEPAGE-1" transform="translate(-992.000000, -989.000000)">
            <g id="Page-1" transform="translate(992.000000, 989.000000)">
                <path d="M165,82.5 C165,128.063 128.063,165 82.5,165 C36.937,165 0,128.063 0,82.5 C0,36.937 36.937,0 82.5,0 C128.063,0 165,36.937 165,82.5" id="Fill-1" fill="#FFF3E3"></path>
                <polygon id="Fill-3" fill="#F9BF00" points="82.5 103.3691 72.784 103.3691 72.784 123.7501 82.5 114.0341 92.216 123.7501 92.216 103.3691"></polygon>
                <path d="M126.5,136.3301 C126.5,137.4341 106.801,138.3301 82.5,138.3301 C58.199,138.3301 38.5,137.4341 38.5,136.3301 C38.5,135.2261 58.199,134.3301 82.5,134.3301 C106.801,134.3301 126.5,135.2261 126.5,136.3301" id="Fill-5" fill="#F28500"></path>
                <path d="M82.5,94.9473 C68.247,94.9473 56.692,83.3933 56.692,69.1393 C56.692,54.8863 68.247,43.3313 82.5,43.3313 C96.753,43.3313 108.308,54.8863 108.308,69.1393 C108.308,83.3933 96.753,94.9473 82.5,94.9473 M82.5,33.1393 C62.618,33.1393 46.5,49.2573 46.5,69.1393 C46.5,89.0213 62.618,105.1383 82.5,105.1383 C102.382,105.1383 118.5,89.0213 118.5,69.1393 C118.5,49.2573 102.382,33.1393 82.5,33.1393" id="Fill-7" fill="#F28500"></path>
                <path d="M89.7236,59.3281 L104.0686,61.4121 C100.9776,52.7851 92.8786,46.5621 83.2656,46.2441 L89.7236,59.3281 Z" id="Fill-9" fill="#F9BF00"></path>
                <path d="M75.2783,59.3281 L81.7363,46.2441 C72.1223,46.5611 64.0223,52.7841 60.9313,61.4121 L75.2783,59.3281 Z" id="Fill-11" fill="#F9BF00"></path>
                <path d="M70.8154,73.0654 L60.4374,62.9494 C59.8854,64.9194 59.5694,66.9894 59.5694,69.1364 C59.5694,76.4754 63.0294,82.9924 68.3924,87.1904 L70.8154,73.0654 Z" id="Fill-13" fill="#F9BF00"></path>
                <path d="M82.501,81.5557 L69.808,88.2297 C73.443,90.6507 77.806,92.0687 82.5,92.0687 C87.196,92.0687 91.559,90.6507 95.193,88.2297 L82.501,81.5557 Z" id="Fill-15" fill="#F9BF00"></path>
                <path d="M94.1865,73.0654 L96.6095,87.1874 C101.9715,82.9904 105.4305,76.4744 105.4305,69.1364 C105.4305,66.9904 105.1145,64.9214 104.5625,62.9504 L94.1865,73.0654 Z" id="Fill-17" fill="#F9BF00"></path>
                <polygon id="Fill-19" fill="#F28500" points="82.5 51.9927 87.501 62.1237 98.68 63.7487 90.59 71.6347 92.5 82.7707 82.5 77.5127 72.5 82.7707 74.41 71.6347 66.32 63.7487 77.5 62.1237"></polygon>
                <polygon id="Fill-21" fill="#F28500" points="46.5 111.9346 41.875 111.9346 41.875 107.3096 38.625 107.3096 38.625 111.9346 34 111.9346 34 115.1846 38.625 115.1846 38.625 119.8096 41.875 119.8096 41.875 115.1846 46.5 115.1846"></polygon>
                <polygon id="Fill-23" fill="#F28500" points="126.5 38.3687 121.875 38.3687 121.875 33.7437 118.625 33.7437 118.625 38.3687 114 38.3687 114 41.6187 118.625 41.6187 118.625 46.2437 121.875 46.2437 121.875 41.6187 126.5 41.6187"></polygon>
            </g>
        </g>
    </g>
</svg>