<?xml version="1.0" encoding="UTF-8"?>
<svg width="165px" height="165px" viewBox="0 0 165 165" version="1.1" xmlns="http://www.w3.org/2000/svg" xmlns:xlink="http://www.w3.org/1999/xlink">
    <!-- Generator: Sketch 45.2 (43514) - http://www.bohemiancoding.com/sketch -->
    <title>Page 1</title>
    <desc>Created with Sketch.</desc>
    <defs></defs>
    <g id="Page-1" stroke="none" stroke-width="1" fill="none" fill-rule="evenodd">
        <g id="1-HOMEPAGE-1" transform="translate(-703.000000, -989.000000)">
            <g id="Page-1" transform="translate(703.000000, 989.000000)">
                <path d="M165,82.5 C165,128.063 128.063,165 82.5,165 C36.937,165 0,128.063 0,82.5 C0,36.937 36.937,0 82.5,0 C128.063,0 165,36.937 165,82.5" id="Fill-1" fill="#FFF3E3"></path>
                <path d="M95.9912,57.8018 L96.1512,57.8808 C98.6572,54.2438 102.5632,51.6438 107.0832,50.8638 C106.8052,49.8888 106.6552,48.8958 106.6172,47.8988 C105.9262,47.7568 105.1772,47.6418 104.3582,47.5588 C103.3462,48.0778 102.2012,48.3708 100.9862,48.3708 C99.7672,48.3708 98.6182,48.0748 97.6042,47.5538 C96.6222,47.6498 95.7432,47.7918 94.9502,47.9718 C94.8152,51.1818 93.4712,54.0878 91.3592,56.2358 C93.1012,56.6198 94.6352,57.1388 95.9912,57.8018" id="Fill-3" fill="#F28500"></path>
                <path d="M57.915,50.8633 C58.187,49.9093 58.339,48.9383 58.38,47.9613 C59.148,47.7893 59.991,47.6533 60.923,47.5593 C61.935,48.0773 63.081,48.3703 64.295,48.3703 C65.514,48.3703 66.664,48.0743 67.678,47.5533 C68.469,47.6313 69.193,47.7373 69.86,47.8683 C69.971,51.1303 71.327,54.0813 73.471,56.2553 C71.828,56.6203 70.36,57.1073 69.036,57.7213 L68.812,57.8253 C66.304,54.2173 62.414,51.6383 57.915,50.8633" id="Fill-5" fill="#F28500"></path>
                <path d="M108.4395,118.8291 L108.4395,127.7061 C106.1735,129.2271 103.2825,130.5401 99.9375,131.5651 L99.9375,120.9211 L98.1005,132.0871 C93.5125,133.2921 88.1975,133.9801 82.5285,133.9801 C76.8345,133.9801 71.4965,133.2851 66.8965,132.0701 L65.0625,120.9211 L65.0625,131.5471 C61.3965,130.4171 58.2795,128.9441 55.9365,127.2261 L55.9365,118.8291 C55.9365,109.9451 58.9775,101.7361 75.7275,100.0491 C77.7605,101.0891 80.0615,101.6791 82.5025,101.6791 C84.9485,101.6791 87.2575,101.0841 89.2945,100.0371 C106.2805,101.6971 108.4395,109.9231 108.4395,118.8291" id="Fill-7" fill="#F28500"></path>
                <path d="M70.2705,97.0977 C66.9145,93.8777 64.8225,89.3527 64.8225,84.3447 C64.8225,84.0377 64.8315,83.7347 64.8455,83.4317 C63.9045,83.2807 62.9095,83.1517 61.8565,83.0477 C59.8195,84.0947 57.5095,84.6897 55.0625,84.6897 C52.6235,84.6897 50.3225,84.0997 48.2915,83.0607 C31.5385,84.7467 28.4995,92.9557 28.4995,101.8397 L28.4995,110.2387 C30.8415,111.9557 33.9585,113.4287 37.6245,114.5577 L37.6245,103.9317 L39.4585,115.0817 C43.2845,116.0917 47.6245,116.7357 52.2495,116.9267 C52.8585,106.0677 58.7755,99.5347 70.2705,97.0977" id="Fill-9" fill="#F28500"></path>
                <path d="M94.7588,60.3228 C92.8788,59.4048 90.4098,58.7418 87.1628,58.4258 C85.7368,59.1568 84.1208,59.5728 82.4078,59.5728 C80.6988,59.5728 79.0888,59.1608 77.6658,58.4328 C74.5498,58.7478 72.1178,59.3858 70.2178,60.2678 C71.2298,62.4218 71.7968,64.8228 71.7968,67.3558 C71.7968,69.0098 71.5538,70.6088 71.1038,72.1188 C74.0938,69.3278 78.0968,67.6088 82.5008,67.6088 C86.9018,67.6088 90.9078,69.3198 93.8988,72.1068 C93.4488,70.5998 93.2038,69.0068 93.2038,67.3558 C93.2038,64.8458 93.7638,62.4638 94.7588,60.3228" id="Fill-11" fill="#F28500"></path>
                <path d="M124.0967,58.4453 C135.8167,59.6493 137.3177,65.3773 137.3177,71.5793 L137.3177,77.7933 C135.7307,78.8593 133.7057,79.7763 131.3657,80.4943 L131.3657,73.0433 L130.0787,80.8603 C128.5097,81.2723 126.8187,81.5953 125.0367,81.8213 C123.5377,81.3613 121.8937,80.9693 120.0687,80.6713 C124.0807,77.6113 126.6757,72.7803 126.6757,67.3553 C126.6757,64.0823 125.7277,61.0283 124.0967,58.4453" id="Fill-13" fill="#F28500"></path>
                <path d="M38.3223,67.3555 C38.3223,72.7805 40.9173,77.6105 44.9303,80.6715 C43.1053,80.9695 41.4603,81.3605 39.9623,81.8215 C38.1803,81.5955 36.4893,81.2725 34.9203,80.8595 L33.6353,73.0435 L33.6353,80.4945 C31.2923,79.7755 29.2683,78.8585 27.6823,77.7935 L27.6823,71.5795 C27.6823,65.3765 29.1823,59.6485 40.9023,58.4455 C39.2703,61.0285 38.3223,64.0825 38.3223,67.3555" id="Fill-15" fill="#F28500"></path>
                <path d="M136.502,101.8398 L136.502,110.2378 C134.16,111.9558 131.042,113.4288 127.378,114.5578 L127.378,103.9318 L125.543,115.0818 C121.551,116.1358 117.003,116.7978 112.149,116.9548 C111.813,108.8418 108.974,100.0638 94.755,97.0728 C98.096,93.8568 100.177,89.3388 100.177,84.3448 C100.177,84.0388 100.168,83.7348 100.153,83.4318 C101.095,83.2798 102.092,83.1518 103.145,83.0478 C105.182,84.0948 107.49,84.6898 109.939,84.6898 C112.378,84.6898 114.679,84.0998 116.712,83.0608 C133.462,84.7468 136.502,92.9558 136.502,101.8398" id="Fill-17" fill="#F28500"></path>
                <path d="M94.0518,39.7407 C94.0518,35.9097 97.1558,32.8037 100.9878,32.8037 C104.8178,32.8037 107.9228,35.9097 107.9228,39.7407 C107.9228,43.5707 104.8178,46.6757 100.9878,46.6757 C97.1558,46.6757 94.0518,43.5707 94.0518,39.7407" id="Fill-19" fill="#F9BF00"></path>
                <path d="M64.2949,46.6758 C68.1259,46.6758 71.2309,43.5708 71.2309,39.7408 C71.2309,35.9098 68.1259,32.8038 64.2949,32.8038 C60.4639,32.8038 57.3589,35.9098 57.3589,39.7408 C57.3589,43.5708 60.4639,46.6758 64.2949,46.6758" id="Fill-21" fill="#F9BF00"></path>
                <path d="M82.501,70.415 C74.807,70.415 68.57,76.652 68.57,84.345 C68.57,92.038 74.807,98.274 82.501,98.274 C90.194,98.274 96.429,92.038 96.429,84.345 C96.429,76.652 90.194,70.415 82.501,70.415" id="Fill-23" fill="#F9BF00"></path>
                <path d="M41.1318,67.3555 C41.1318,59.6635 47.3688,53.4255 55.0628,53.4255 C62.7558,53.4255 68.9898,59.6635 68.9898,67.3555 C68.9898,75.0495 62.7558,81.2865 55.0628,81.2865 C47.3688,81.2865 41.1318,75.0495 41.1318,67.3555" id="Fill-25" fill="#F9BF00"></path>
                <path d="M72.6563,47.4409 C72.6563,42.0549 77.0223,37.6899 82.4073,37.6899 C87.7933,37.6899 92.1563,42.0549 92.1563,47.4409 C92.1563,52.8259 87.7933,57.1909 82.4073,57.1909 C77.0223,57.1909 72.6563,52.8259 72.6563,47.4409" id="Fill-27" fill="#F9BF00"></path>
                <path d="M122.6836,56.5244 C126.3246,55.1104 128.9086,51.5814 128.9086,47.4414 C128.9086,42.0554 124.5446,37.6904 119.1596,37.6904 C113.7746,37.6904 109.4086,42.0554 109.4086,47.4414 C109.4086,48.5544 109.6036,49.6224 109.9486,50.6194 C115.0436,50.6224 119.6136,52.9174 122.6836,56.5244" id="Fill-29" fill="#F9BF00"></path>
                <path d="M55.0508,50.6196 C55.3948,49.6226 55.5908,48.5546 55.5908,47.4406 C55.5908,42.0556 51.2248,37.6896 45.8398,37.6896 C40.4538,37.6896 36.0908,42.0556 36.0908,47.4406 C36.0908,51.5816 38.6748,55.1106 42.3158,56.5246 C45.3858,52.9176 49.9538,50.6226 55.0508,50.6196" id="Fill-31" fill="#F9BF00"></path>
                <path d="M109.9385,81.2861 C117.6325,81.2861 123.8705,75.0501 123.8705,67.3551 C123.8705,59.6631 117.6325,53.4261 109.9385,53.4261 C102.2465,53.4261 96.0105,59.6631 96.0105,67.3551 C96.0105,75.0501 102.2465,81.2861 109.9385,81.2861" id="Fill-33" fill="#F9BF00"></path>
                <path d="M126.5,136.3301 C126.5,137.4341 106.801,138.3301 82.5,138.3301 C58.199,138.3301 38.5,137.4341 38.5,136.3301 C38.5,135.2261 58.199,134.3301 82.5,134.3301 C106.801,134.3301 126.5,135.2261 126.5,136.3301" id="Fill-35" fill="#F28500"></path>
            </g>
        </g>
    </g>
</svg>