<?xml version="1.0" encoding="UTF-8"?>
<svg width="120px" height="120px" viewBox="0 0 120 120" version="1.1" xmlns="http://www.w3.org/2000/svg" xmlns:xlink="http://www.w3.org/1999/xlink">
    <!-- Generator: Sketch 45.2 (43514) - http://www.bohemiancoding.com/sketch -->
    <title>Page 1</title>
    <desc>Created with Sketch.</desc>
    <defs></defs>
    <g id="Page-1" stroke="none" stroke-width="1" fill="none" fill-rule="evenodd">
        <g id="3-SERVICES" transform="translate(-260.000000, -2558.000000)">
            <g id="Page-1" transform="translate(260.000000, 2558.000000)">
                <path d="M120,60 C120,93.138 93.138,120 60,120 C26.862,120 0,93.138 0,60 C0,26.8635 26.862,0 60,0 C93.138,0 120,26.8635 120,60" id="Fill-1" fill="#FFF3E3"></path>
                <path d="M91.9995,99.1494 C91.9995,99.9519 77.673,100.6044 60,100.6044 C42.327,100.6044 28.0005,99.9519 28.0005,99.1494 C28.0005,98.3469 42.327,97.6944 60,97.6944 C77.673,97.6944 91.9995,98.3469 91.9995,99.1494" id="Fill-3" fill="#F28500"></path>
                <path d="M47.7861,49.6992 C46.8171,50.6667 45.4716,51.2652 43.9851,51.2652 C42.5016,51.2652 41.1606,50.6637 40.1901,49.6932 C39.2196,48.7227 38.6181,47.3802 38.6181,45.8967 C38.6181,44.4762 39.1656,43.1847 40.0596,42.2247 C40.1031,42.1857 40.1466,42.1437 40.1901,42.1017 C41.1606,41.1312 42.5016,40.5297 43.9851,40.5297 C45.4716,40.5297 46.8171,41.1282 47.7861,42.0942 C48.7551,43.0662 49.3521,44.4102 49.3521,45.8967 C49.3521,47.3802 48.7521,48.7227 47.7816,49.6932 L47.7861,49.6992 Z M52.1301,37.7622 L52.1196,37.7517 C50.0331,35.6667 47.1561,34.3752 43.9851,34.3752 C40.8051,34.3752 37.9236,35.6667 35.8371,37.7517 C35.7741,37.8147 35.7126,37.8822 35.6571,37.9497 C33.6786,40.0197 32.4636,42.8187 32.4636,45.8967 C32.4636,49.0767 33.7551,51.9597 35.8371,54.0432 C37.9236,56.1297 40.8051,57.4182 43.9851,57.4182 C47.1561,57.4182 50.0331,56.1297 52.1196,54.0432 L52.1256,54.0372 L52.1301,54.0432 C54.2166,51.9597 55.5066,49.0767 55.5066,45.8967 C55.5066,42.7242 54.2166,39.8487 52.1301,37.7622 L52.1301,37.7622 Z" id="Fill-5" fill="#F9BF00"></path>
                <path d="M78.48195,48.7002 L78.46995,48.7122 C76.89195,50.2902 74.70345,51.2652 72.27645,51.2652 C69.84945,51.2652 67.65945,50.2902 66.08445,48.7122 L66.07245,48.7002 C64.49445,47.1237 63.51795,44.9337 63.51795,42.5067 C63.51795,40.0797 64.49445,37.8912 66.07245,36.3147 L66.08445,36.3027 C67.65945,34.7262 69.84945,33.7497 72.27645,33.7497 C74.70345,33.7497 76.89195,34.7262 78.46995,36.3027 L78.48195,36.3147 C80.05845,37.8912 81.03495,40.0797 81.03495,42.5067 C81.03495,44.9337 80.05845,47.1237 78.48195,48.7002 M82.82445,31.9812 L82.81995,31.9767 L82.81395,31.9707 L82.80795,31.9647 C80.10495,29.2647 76.37895,27.5967 72.27645,27.5967 C68.17695,27.5967 64.45245,29.2632 61.74945,31.9587 L61.74495,31.9647 L61.73745,31.9707 L61.73295,31.9767 C59.03295,34.6797 57.36495,38.4057 57.36495,42.5067 C57.36495,46.6062 59.02995,50.3307 61.72695,53.0322 L61.73295,53.0397 L61.73745,53.0442 L61.74495,53.0502 C64.44945,55.7487 68.17395,57.4182 72.27645,57.4182 C76.37595,57.4182 80.09895,55.7532 82.80195,53.0562 L82.80795,53.0502 L82.81395,53.0442 L82.81995,53.0397 C85.51995,50.3337 87.18795,46.6092 87.18795,42.5067 C87.18795,38.4087 85.51995,34.6842 82.82445,31.9812" id="Fill-7" fill="#F9BF00"></path>
                <polygon id="Fill-9" fill="#F9BF00" points="88.64355 65.2749 79.64055 70.4739 78.55005 71.1024 78.55005 80.2419 79.64055 80.8689 88.64355 86.0664"></polygon>
                <path d="M55.5117,79.3023 L55.5072,79.3038 L55.5057,79.3023 L48.3702,83.4228 L48.3687,75.1803 L48.3762,75.1803 L48.3762,66.9423 L55.5057,71.0598 L62.6457,75.1833 L55.5117,79.3023 Z M74.6202,60.4653 L36.3957,60.4653 C34.2327,60.4653 32.4642,62.2338 32.4642,64.3953 L32.4642,86.9478 C32.4642,89.1093 34.2327,90.8793 36.3957,90.8793 L74.6202,90.8793 C76.7832,90.8793 78.5502,89.1093 78.5502,86.9478 L78.5502,64.3953 C78.5502,62.2338 76.7832,60.4653 74.6202,60.4653 L74.6202,60.4653 Z" id="Fill-11" fill="#F28500"></path>
            </g>
        </g>
    </g>
</svg>