<?xml version="1.0" encoding="UTF-8"?>
<svg width="120px" height="120px" viewBox="0 0 120 120" version="1.1" xmlns="http://www.w3.org/2000/svg" xmlns:xlink="http://www.w3.org/1999/xlink">
    <!-- Generator: Sketch 45.2 (43514) - http://www.bohemiancoding.com/sketch -->
    <title>Page 1</title>
    <desc>Created with Sketch.</desc>
    <defs></defs>
    <g id="Page-1" stroke="none" stroke-width="1" fill="none" fill-rule="evenodd">
        <g id="3-SERVICES" transform="translate(-900.000000, -3218.000000)">
            <g id="Page-1" transform="translate(900.000000, 3218.000000)">
                <path d="M120,60 C120,93.138 93.138,120 60,120 C26.862,120 0,93.138 0,60 C0,26.8635 26.862,0 60,0 C93.138,0 120,26.8635 120,60" id="Fill-1" fill="#FFF3E3"></path>
                <path d="M91.9995,99.1494 C91.9995,99.9519 77.673,100.6044 60,100.6044 C42.327,100.6044 28.0005,99.9519 28.0005,99.1494 C28.0005,98.3469 42.327,97.6944 60,97.6944 C77.673,97.6944 91.9995,98.3469 91.9995,99.1494" id="Fill-3" fill="#F28500"></path>
                <path d="M54.35745,29.49165 L54.50745,27.92565 C54.93195,23.46765 57.10245,22.86615 59.17545,22.86615 C61.24545,22.86615 63.41745,23.46915 63.84345,27.93015 L63.98295,29.41365 L64.41195,29.43765 L64.20645,30.65565 L63.93045,30.65565 L63.51045,31.77915 C62.59095,34.22865 61.01145,35.63265 59.17545,35.63265 C57.33345,35.63265 55.75395,34.22565 54.83745,31.77315 L54.45345,30.74565 L54.13545,30.71865 L53.95395,29.49165 L54.35745,29.49165 Z" id="Fill-5" fill="#F9BF00"></path>
                <path d="M47.814,44.1768 C47.814,41.0133 50.388,38.4423 53.55,38.4423 L55.308,38.4423 C56.511,39.1068 57.81,39.4428 59.175,39.4428 C60.5415,39.4428 61.8405,39.1068 63.0405,38.4423 L64.797,38.4423 C67.9605,38.4423 70.533,41.0133 70.533,44.1768 L70.533,47.8248 C70.533,48.1638 70.2855,48.4563 69.96,48.5058 C62.805,49.5693 55.5465,49.5693 48.3885,48.5058 C48.0615,48.4563 47.814,48.1638 47.814,47.8248 L47.814,44.1768 Z" id="Fill-7" fill="#F28500"></path>
                <path d="M81.02925,65.7978 L81.18075,64.2333 C81.60375,59.7738 83.77575,59.1738 85.84875,59.1738 C87.91725,59.1738 90.09225,59.7753 90.51525,64.2363 L90.65775,65.7213 L91.08525,65.7423 L90.87975,66.9618 L90.60225,66.9618 L90.18225,68.0853 C89.26425,70.5363 87.68475,71.9388 85.84875,71.9388 C84.00675,71.9388 82.42575,70.5318 81.51075,68.0793 L81.12675,67.0533 L80.80725,67.0263 L80.62575,65.7978 L81.02925,65.7978 Z" id="Fill-9" fill="#F9BF00"></path>
                <path d="M97.20555,84.13035 C97.20555,84.47235 96.95805,84.76335 96.63105,84.81285 C89.47455,85.87485 82.21905,85.87785 75.06255,84.81285 C74.73555,84.76335 74.48655,84.47235 74.48655,84.13035 L74.48655,80.48085 C74.48655,77.32035 77.06055,74.74785 80.22255,74.74785 L81.98055,74.74785 C83.18355,75.41235 84.48255,75.74835 85.84905,75.74835 C87.21405,75.74835 88.51305,75.41235 89.71455,74.74785 L91.47255,74.74785 C94.63305,74.74785 97.20555,77.32035 97.20555,80.48085 L97.20555,84.13035 Z" id="Fill-11" fill="#F28500"></path>
                <path d="M27.68265,65.7978 L27.83265,64.2333 C28.25565,59.7738 30.43065,59.1738 32.50365,59.1738 C34.57065,59.1738 36.74565,59.7753 37.17015,64.2363 L37.30965,65.7213 L37.74015,65.7423 L37.53465,66.9618 L37.25865,66.9618 L36.83715,68.0853 C35.91765,70.5363 34.33815,71.9388 32.50365,71.9388 C30.66165,71.9388 29.07915,70.5318 28.16265,68.0793 L27.78165,67.0533 L27.46215,67.0263 L27.28065,65.7978 L27.68265,65.7978 Z" id="Fill-13" fill="#F9BF00"></path>
                <path d="M43.8603,84.13035 C43.8603,84.47235 43.6128,84.76335 43.2843,84.81285 C36.1293,85.87785 28.8738,85.87785 21.7158,84.81285 C21.3903,84.76335 21.1413,84.47235 21.1413,84.13035 L21.1413,80.48085 C21.1413,77.32035 23.7138,74.74785 26.8758,74.74785 L28.6353,74.74785 C29.8383,75.41235 31.1373,75.74835 32.4993,75.74835 C33.8658,75.74835 35.1633,75.41235 36.3678,74.74785 L38.1258,74.74785 C41.2863,74.74785 43.8603,77.32035 43.8603,80.48085 L43.8603,84.13035 Z" id="Fill-15" fill="#F28500"></path>
                <path d="M59.2353,55.81275 L59.2353,55.81275 C58.2798,55.81275 57.5043,56.58675 57.5043,57.54525 L57.5043,65.21925 C57.5043,66.04275 57.0858,66.81075 56.3958,67.25925 L48.9768,72.07725 C48.1743,72.59475 47.9478,73.66575 48.4638,74.46675 C48.9858,75.27075 50.0583,75.50025 50.8608,74.97825 L57.8298,70.45575 C58.6338,69.93375 59.6703,69.93375 60.4758,70.45425 L67.4853,74.98875 C68.2908,75.51075 69.3693,75.27675 69.8853,74.46675 C70.3938,73.66575 70.1628,72.60075 69.3633,72.08325 L62.0778,67.37025 C61.3833,66.92175 60.9648,66.15075 60.9648,65.32575 L60.9648,57.54525 C60.9648,56.58675 60.1908,55.81275 59.2353,55.81275" id="Fill-17" fill="#F9BF00"></path>
            </g>
        </g>
    </g>
</svg>